# This file uses centimeters as units for non-parametric coordinates.

mtllib 02.mtl
g default
v -43.162262 -5.639833 4.943319
v -33.152587 -5.639833 4.943319
v -43.162262 0.000000 4.943319
v -33.152587 0.000000 4.943319
v -43.162262 0.000000 -5.000000
v -33.152587 0.000000 -5.000000
v -43.162262 -5.639833 -5.000000
v -33.152587 -5.639833 -5.000000
vt 0.375000 0.000000
vt 0.625000 0.000000
vt 0.375000 0.250000
vt 0.625000 0.250000
vt 0.375000 0.500000
vt 0.625000 0.500000
vt 0.375000 0.750000
vt 0.625000 0.750000
vt 0.375000 1.000000
vt 0.625000 1.000000
vt 0.875000 0.000000
vt 0.875000 0.250000
vt 0.125000 0.000000
vt 0.125000 0.250000
vn 0.000000 0.000000 1.000000
vn 0.000000 0.000000 1.000000
vn 0.000000 0.000000 1.000000
vn 0.000000 0.000000 1.000000
vn 0.000000 1.000000 0.000000
vn 0.000000 1.000000 0.000000
vn 0.000000 1.000000 0.000000
vn 0.000000 1.000000 0.000000
vn 0.000000 0.000000 -1.000000
vn 0.000000 0.000000 -1.000000
vn 0.000000 0.000000 -1.000000
vn 0.000000 0.000000 -1.000000
vn 0.000000 -1.000000 0.000000
vn 0.000000 -1.000000 0.000000
vn 0.000000 -1.000000 0.000000
vn 0.000000 -1.000000 0.000000
vn 1.000000 0.000000 0.000000
vn 1.000000 0.000000 0.000000
vn 1.000000 0.000000 0.000000
vn 1.000000 0.000000 0.000000
vn -1.000000 0.000000 0.000000
vn -1.000000 0.000000 0.000000
vn -1.000000 0.000000 0.000000
vn -1.000000 0.000000 0.000000
s off
g pCube13
usemtl initialShadingGroup
f 1/1/1 2/2/2 4/4/3 3/3/4
f 3/3/5 4/4/6 6/6/7 5/5/8
f 5/5/9 6/6/10 8/8/11 7/7/12
f 7/7/13 8/8/14 2/10/15 1/9/16
f 2/2/17 8/11/18 6/12/19 4/4/20
f 7/13/21 1/1/22 3/3/23 5/14/24
g default
v -43.162254 -3.751234 -0.027622
v -33.152145 -3.751234 -0.027622
v -33.152145 0.000000 -0.027622
v -43.162254 1.763416 -0.027622
v -33.152145 -3.751234 -5.000000
v -33.152145 0.000000 -5.000000
v -43.162254 1.763416 -5.000000
v -43.162254 -3.751234 -5.000000
vt 0.375000 0.000000
vt 0.625000 0.000000
vt 0.625000 0.162731
vt 0.375000 0.239229
vt 0.875000 0.000000
vt 0.875000 0.162731
vt 0.375866 0.750000
vt 0.375866 1.000000
vt 0.624080 1.000000
vt 0.624080 0.750000
vt 0.375000 0.750000
vt 0.625000 0.750000
vt 0.625000 1.000000
vt 0.375000 1.000000
vt 0.125000 0.000000
vt 0.125000 0.239229
vt 0.625000 0.587269
vt 0.375000 0.510771
vn 0.000000 0.000000 1.000000
vn 0.000000 0.000000 1.000000
vn 0.000000 0.000000 1.000000
vn 0.000000 0.000000 1.000000
vn 1.000000 0.000000 0.000000
vn 1.000000 0.000000 0.000000
vn 1.000000 0.000000 0.000000
vn 1.000000 0.000000 0.000000
vn 0.173492 0.984835 0.000000
vn 0.173492 0.984835 0.000000
vn 0.173492 0.984835 0.000000
vn 0.173492 0.984835 0.000000
vn 0.000000 -1.000000 0.000000
vn 0.000000 -1.000000 0.000000
vn 0.000000 -1.000000 0.000000
vn 0.000000 -1.000000 0.000000
vn -1.000000 0.000000 0.000000
vn -1.000000 0.000000 0.000000
vn -1.000000 0.000000 0.000000
vn -1.000000 0.000000 0.000000
vn -0.000000 0.000000 -1.000000
vn -0.000000 0.000000 -1.000000
vn -0.000000 0.000000 -1.000000
vn -0.000000 0.000000 -1.000000
s off
g pCube12
usemtl initialShadingGroup
f 9/15/25 10/16/26 11/17/27 12/18/28
f 11/17/29 10/16/30 13/19/31 14/20/32
f 15/21/33 12/22/34 11/23/35 14/24/36
f 16/25/37 13/26/38 10/27/39 9/28/40
f 16/29/41 9/15/42 12/18/43 15/30/44
f 14/31/45 13/26/46 16/25/47 15/32/48
g default
v -31.162262 -5.638603 4.968008
v -21.152587 -5.638603 4.968008
v -31.162262 0.001229 4.968008
v -21.152587 0.001229 4.968008
v -31.162262 0.001229 -4.975310
v -21.152587 0.001229 -4.975310
v -31.162262 -5.638603 -4.975310
v -21.152587 -5.638603 -4.975310
vt 0.375000 0.000000
vt 0.625000 0.000000
vt 0.375000 0.250000
vt 0.625000 0.250000
vt 0.375000 0.500000
vt 0.625000 0.500000
vt 0.375000 0.750000
vt 0.625000 0.750000
vt 0.375000 1.000000
vt 0.625000 1.000000
vt 0.875000 0.000000
vt 0.875000 0.250000
vt 0.125000 0.000000
vt 0.125000 0.250000
vn 0.000000 0.000000 1.000000
vn 0.000000 0.000000 1.000000
vn 0.000000 0.000000 1.000000
vn 0.000000 0.000000 1.000000
vn 0.000000 1.000000 0.000000
vn 0.000000 1.000000 0.000000
vn 0.000000 1.000000 0.000000
vn 0.000000 1.000000 0.000000
vn 0.000000 0.000000 -1.000000
vn 0.000000 0.000000 -1.000000
vn 0.000000 0.000000 -1.000000
vn 0.000000 0.000000 -1.000000
vn 0.000000 -1.000000 0.000000
vn 0.000000 -1.000000 0.000000
vn 0.000000 -1.000000 0.000000
vn 0.000000 -1.000000 0.000000
vn 1.000000 0.000000 0.000000
vn 1.000000 0.000000 0.000000
vn 1.000000 0.000000 0.000000
vn 1.000000 0.000000 0.000000
vn -1.000000 0.000000 0.000000
vn -1.000000 0.000000 0.000000
vn -1.000000 0.000000 0.000000
vn -1.000000 0.000000 0.000000
s off
g pCube8
usemtl initialShadingGroup
f 17/33/49 18/34/50 20/36/51 19/35/52
f 19/35/53 20/36/54 22/38/55 21/37/56
f 21/37/57 22/38/58 24/40/59 23/39/60
f 23/39/61 24/40/62 18/42/63 17/41/64
f 18/34/65 24/43/66 22/44/67 20/36/68
f 23/45/69 17/33/70 19/35/71 21/46/72
