# This file uses centimeters as units for non-parametric coordinates.

mtllib area0102.mtl
g default
v -9.543457 -4.158125 -9.732639
v -0.672632 -4.158125 -9.732639
v -9.543457 -0.000000 -9.732639
v -0.672632 -0.000000 -9.732639
v -9.543457 -0.000000 -19.728861
v -0.672632 -0.000000 -19.728861
v -9.543457 -4.158125 -19.728861
v -0.672632 -4.158125 -19.728861
vt 0.375000 0.000000
vt 0.625000 0.000000
vt 0.375000 0.250000
vt 0.625000 0.250000
vt 0.375000 0.500000
vt 0.625000 0.500000
vt 0.375000 0.750000
vt 0.625000 0.750000
vt 0.375000 1.000000
vt 0.625000 1.000000
vt 0.875000 0.000000
vt 0.875000 0.250000
vt 0.125000 0.000000
vt 0.125000 0.250000
vn 0.000000 0.000000 1.000000
vn 0.000000 0.000000 1.000000
vn 0.000000 0.000000 1.000000
vn 0.000000 0.000000 1.000000
vn 0.000000 1.000000 0.000000
vn 0.000000 1.000000 0.000000
vn 0.000000 1.000000 0.000000
vn 0.000000 1.000000 0.000000
vn 0.000000 0.000000 -1.000000
vn 0.000000 0.000000 -1.000000
vn 0.000000 0.000000 -1.000000
vn 0.000000 0.000000 -1.000000
vn 0.000000 -1.000000 0.000000
vn 0.000000 -1.000000 0.000000
vn 0.000000 -1.000000 0.000000
vn 0.000000 -1.000000 0.000000
vn 1.000000 0.000000 0.000000
vn 1.000000 0.000000 0.000000
vn 1.000000 0.000000 0.000000
vn 1.000000 0.000000 0.000000
vn -1.000000 0.000000 0.000000
vn -1.000000 0.000000 0.000000
vn -1.000000 0.000000 0.000000
vn -1.000000 0.000000 0.000000
s off
g pCube18
usemtl initialShadingGroup
f 1/1/1 2/2/2 4/4/3 3/3/4
f 3/3/5 4/4/6 6/6/7 5/5/8
f 5/5/9 6/6/10 8/8/11 7/7/12
f 7/7/13 8/8/14 2/10/15 1/9/16
f 2/2/17 8/11/18 6/12/19 4/4/20
f 7/13/21 1/1/22 3/3/23 5/14/24
g default
v -5.366728 -0.021795 -17.811675
v -3.647632 2.092223 -17.811675
v -5.388417 -0.004158 -17.811675
v -3.669320 2.109860 -17.811675
v -5.388417 -0.004158 -19.434132
v -3.669320 2.109860 -19.434132
v -5.366728 -0.021795 -19.434132
v -3.647632 2.092223 -19.434132
vt 0.375000 0.000000
vt 0.625000 0.000000
vt 0.375000 0.250000
vt 0.625000 0.250000
vt 0.375000 0.500000
vt 0.625000 0.500000
vt 0.375000 0.750000
vt 0.625000 0.750000
vt 0.375000 1.000000
vt 0.625000 1.000000
vt 0.875000 0.000000
vt 0.875000 0.250000
vt 0.125000 0.000000
vt 0.125000 0.250000
vn 0.000000 0.000000 1.000000
vn 0.000000 0.000000 1.000000
vn 0.000000 0.000000 1.000000
vn 0.000000 0.000000 1.000000
vn -0.775852 0.630915 0.000000
vn -0.775852 0.630915 0.000000
vn -0.775852 0.630915 0.000000
vn -0.775852 0.630915 0.000000
vn 0.000000 0.000000 -1.000000
vn 0.000000 0.000000 -1.000000
vn 0.000000 0.000000 -1.000000
vn 0.000000 0.000000 -1.000000
vn 0.775852 -0.630915 0.000000
vn 0.775852 -0.630915 0.000000
vn 0.775852 -0.630915 0.000000
vn 0.775852 -0.630915 0.000000
vn 0.630915 0.775852 0.000000
vn 0.630915 0.775852 0.000000
vn 0.630915 0.775852 0.000000
vn 0.630915 0.775852 0.000000
vn -0.630915 -0.775852 0.000000
vn -0.630915 -0.775852 0.000000
vn -0.630915 -0.775852 0.000000
vn -0.630915 -0.775852 0.000000
s off
g pCube23
usemtl initialShadingGroup
f 9/15/25 10/16/26 12/18/27 11/17/28
f 11/17/29 12/18/30 14/20/31 13/19/32
f 13/19/33 14/20/34 16/22/35 15/21/36
f 15/21/37 16/22/38 10/24/39 9/23/40
f 10/16/41 16/25/42 14/26/43 12/18/44
f 15/27/45 9/15/46 11/17/47 13/28/48
g default
v -3.672874 -2.089692 -9.732639
v -0.672631 -2.089692 -9.732639
v -3.672874 0.019506 -9.732639
v -0.672631 0.019506 -9.732639
v -3.672874 2.109892 -17.557167
v -0.672631 2.109892 -17.557167
v -3.672873 0.000694 -17.557175
v -0.672631 0.000694 -17.557175
vt 0.375000 0.000000
vt 0.625000 0.000000
vt 0.375000 0.250000
vt 0.625000 0.250000
vt 0.375000 0.500000
vt 0.625000 0.500000
vt 0.375000 0.750000
vt 0.625000 0.750000
vt 0.375000 1.000000
vt 0.625000 1.000000
vt 0.875000 0.000000
vt 0.875000 0.250000
vt 0.125000 0.000000
vt 0.125000 0.250000
vn 0.000000 0.000000 1.000000
vn 0.000000 0.000000 1.000000
vn 0.000000 0.000000 1.000000
vn 0.000000 0.000000 1.000000
vn 0.000000 0.966117 0.258106
vn 0.000000 0.966117 0.258106
vn 0.000000 0.966117 0.258106
vn 0.000000 0.966117 0.258106
vn 0.000000 0.000004 -1.000000
vn 0.000000 0.000004 -1.000000
vn 0.000000 0.000004 -1.000000
vn 0.000000 0.000004 -1.000000
vn 0.000000 -0.966117 -0.258106
vn 0.000000 -0.966117 -0.258106
vn 0.000000 -0.966117 -0.258106
vn 0.000000 -0.966117 -0.258106
vn 1.000000 -0.000000 -0.000000
vn 1.000000 -0.000000 -0.000000
vn 1.000000 -0.000000 -0.000000
vn 1.000000 -0.000000 -0.000000
vn -1.000000 -0.000000 -0.000000
vn -1.000000 -0.000000 -0.000000
vn -1.000000 -0.000000 -0.000000
vn -1.000000 -0.000000 -0.000000
s off
g pCube22
usemtl initialShadingGroup
f 17/29/49 18/30/50 20/32/51 19/31/52
f 19/31/53 20/32/54 22/34/55 21/33/56
f 21/33/57 22/34/58 24/36/59 23/35/60
f 23/35/61 24/36/62 18/38/63 17/37/64
f 18/30/65 24/39/66 22/40/67 20/32/68
f 23/41/69 17/29/70 19/31/71 21/42/72
g default
v -3.669320 -0.000000 -17.557175
v -0.672632 -0.000000 -17.557175
v -3.669320 2.109860 -17.557175
v -0.672632 2.109860 -17.557175
v -3.669320 2.109860 -19.728861
v -0.672632 2.109860 -19.728861
v -3.669320 -0.000000 -19.728861
v -0.672632 -0.000000 -19.728861
vt 0.375000 0.000000
vt 0.625000 0.000000
vt 0.375000 0.250000
vt 0.625000 0.250000
vt 0.375000 0.500000
vt 0.625000 0.500000
vt 0.375000 0.750000
vt 0.625000 0.750000
vt 0.375000 1.000000
vt 0.625000 1.000000
vt 0.875000 0.000000
vt 0.875000 0.250000
vt 0.125000 0.000000
vt 0.125000 0.250000
vn 0.000000 0.000000 1.000000
vn 0.000000 0.000000 1.000000
vn 0.000000 0.000000 1.000000
vn 0.000000 0.000000 1.000000
vn 0.000000 1.000000 0.000000
vn 0.000000 1.000000 0.000000
vn 0.000000 1.000000 0.000000
vn 0.000000 1.000000 0.000000
vn 0.000000 0.000000 -1.000000
vn 0.000000 0.000000 -1.000000
vn 0.000000 0.000000 -1.000000
vn 0.000000 0.000000 -1.000000
vn 0.000000 -1.000000 0.000000
vn 0.000000 -1.000000 0.000000
vn 0.000000 -1.000000 0.000000
vn 0.000000 -1.000000 0.000000
vn 1.000000 0.000000 0.000000
vn 1.000000 0.000000 0.000000
vn 1.000000 0.000000 0.000000
vn 1.000000 0.000000 0.000000
vn -1.000000 0.000000 0.000000
vn -1.000000 0.000000 0.000000
vn -1.000000 0.000000 0.000000
vn -1.000000 0.000000 0.000000
s off
g pCube21
usemtl initialShadingGroup
f 25/43/73 26/44/74 28/46/75 27/45/76
f 27/45/77 28/46/78 30/48/79 29/47/80
f 29/47/81 30/48/82 32/50/83 31/49/84
f 31/49/85 32/50/86 26/52/87 25/51/88
f 26/44/89 32/53/90 30/54/91 28/46/92
f 31/55/93 25/43/94 27/45/95 29/56/96
g default
v -6.281981 -4.158125 1.316758
v 0.437738 -4.158125 1.316758
v 0.437738 0.000000 1.316758
v -6.281981 0.000000 1.316758
v 0.437738 -4.158125 -6.651710
v 0.437738 0.000000 -6.651710
v -4.542936 0.000000 -2.220686
v -4.542936 0.000000 -3.594361
v -4.542936 -1.295297 -3.594361
v -4.542936 -1.295297 -2.220686
v -6.281981 -1.295297 -2.220686
v -6.281981 0.000000 -2.220686
v -6.281981 -1.295297 -3.594361
v -6.281981 0.000000 -3.594361
v -6.281981 -4.158125 -6.651710
v -6.281981 0.000000 -6.651710
vt 0.375000 0.000000
vt 0.625000 0.000000
vt 0.625000 0.250000
vt 0.375000 0.250000
vt 0.875000 0.000000
vt 0.875000 0.250000
vt 0.625000 0.198253
vt 0.875000 0.198253
vt 0.875000 0.000000
vt 0.625000 0.000000
vt 0.383544 0.000000
vt 0.383544 0.198253
vt 0.383544 0.750000
vt 0.383544 1.000000
vt 0.625000 1.000000
vt 0.625000 0.750000
vt 0.625000 0.551747
vt 0.383544 0.551747
vt 0.375000 0.750000
vt 0.625000 0.750000
vt 0.625000 1.000000
vt 0.375000 1.000000
vt 0.375000 0.500000
vt 0.625000 0.500000
vt 0.375000 0.404080
vt 0.439699 0.404080
vt 0.439699 0.360983
vt 0.375000 0.360983
vt 0.125000 0.000000
vt 0.264017 0.250000
vt 0.264017 0.172123
vt 0.220920 0.172123
vt 0.220920 0.250000
vt 0.125000 0.250000
vn 0.000000 0.000000 1.000000
vn 0.000000 0.000000 1.000000
vn 0.000000 0.000000 1.000000
vn 0.000000 0.000000 1.000000
vn 1.000000 0.000000 0.000000
vn 1.000000 0.000000 0.000000
vn 1.000000 0.000000 0.000000
vn 1.000000 0.000000 0.000000
vn -1.000000 0.000000 0.000000
vn -1.000000 0.000000 0.000000
vn -1.000000 0.000000 0.000000
vn -1.000000 0.000000 0.000000
vn 0.000000 0.000000 -1.000000
vn 0.000000 0.000000 -1.000000
vn 0.000000 0.000000 -1.000000
vn 0.000000 0.000000 -1.000000
vn 0.000000 1.000000 0.000000
vn 0.000000 1.000000 0.000000
vn 0.000000 1.000000 0.000000
vn 0.000000 1.000000 0.000000
vn 0.000000 0.000000 1.000000
vn 0.000000 0.000000 1.000000
vn 0.000000 0.000000 1.000000
vn 0.000000 0.000000 1.000000
vn 0.000000 -1.000000 0.000000
vn 0.000000 -1.000000 0.000000
vn 0.000000 -1.000000 0.000000
vn 0.000000 -1.000000 0.000000
vn 0.000000 0.000000 -1.000000
vn 0.000000 0.000000 -1.000000
vn 0.000000 0.000000 -1.000000
vn 0.000000 0.000000 -1.000000
vn 0.000000 1.000000 0.000000
vn 0.000000 1.000000 0.000000
vn 0.000000 1.000000 0.000000
vn 0.000000 1.000000 0.000000
vn 0.000000 1.000000 0.000000
vn 0.000000 1.000000 0.000000
vn 0.000000 1.000000 0.000000
vn 0.000000 1.000000 0.000000
vn -1.000000 0.000000 0.000000
vn -1.000000 0.000000 0.000000
vn -1.000000 0.000000 0.000000
vn -1.000000 0.000000 0.000000
vn -1.000000 0.000000 0.000000
vn -1.000000 0.000000 0.000000
vn -1.000000 0.000000 0.000000
vn -1.000000 0.000000 0.000000
s off
g pCube20
usemtl initialShadingGroup
f 33/57/97 34/58/98 35/59/99 36/60/100
f 34/58/101 37/61/102 38/62/103 35/59/104
f 39/63/105 40/64/106 41/65/107 42/66/108
f 43/67/109 44/68/110 39/63/111 42/66/112
f 45/69/113 43/70/114 42/71/115 41/72/116
f 40/73/117 46/74/118 45/69/119 41/72/120
f 47/75/121 37/76/122 34/77/123 33/78/124
f 48/79/125 38/80/126 37/76/127 47/75/128
f 36/60/129 35/59/130 38/80/131 48/79/132 46/81/133 40/82/134 39/83/135 44/84/136
f 47/85/137 33/57/138 36/60/139 44/86/140 43/87/141 45/88/142 46/89/143 48/90/144
