# This file uses centimeters as units for non-parametric coordinates.

mtllib L1g1.mtl
g default
v 11.365274 1.144872 -10.532591
v 10.885588 0.665185 -10.532591
v 10.885586 1.144872 -11.012278
v 10.885588 1.144872 13.675457
v 10.885588 0.665185 13.195770
v 11.365274 1.144872 13.195770
v 2.752188 1.161431 13.675457
v 3.102987 0.665185 13.222458
v 3.453988 1.161433 13.675457
v -7.399565 1.144872 13.675457
v -7.879252 1.144872 13.195770
v -7.399565 0.665185 13.195770
v -7.399565 1.144872 -11.012278
v -7.399565 0.665185 -10.532591
v -7.879252 1.144872 -10.532591
v 3.584139 8.298890 13.675462
v 3.548263 8.853219 13.237972
v 3.104452 8.373800 13.195775
v 11.365270 8.373801 13.195777
v 10.885579 8.859251 13.202618
v 10.885583 8.298891 13.675462
v 10.885588 12.510930 -11.012278
v 10.839325 12.902162 -10.493820
v 11.365274 12.422158 -10.532591
v 3.104457 12.422159 -10.532591
v 3.584144 12.909942 -10.539423
v 3.584144 12.510930 -11.012278
v 3.104319 7.521794 -11.012278
v 2.624770 7.910425 -10.532591
v 3.104457 8.372323 -10.550380
v 3.588586 8.252437 -11.012278
v 3.469272 7.545480 13.675457
v 3.588584 8.252684 13.675462
v 3.104450 8.381218 13.204670
v 2.642560 7.910425 13.213560
v 2.762025 7.426291 13.675457
v -7.879252 7.430737 -10.532591
v -7.399565 7.910425 -10.532591
v -7.399565 7.430737 -11.012278
v -7.399565 7.430737 13.675457
v -7.399565 7.910425 13.195770
v -7.879252 7.430737 13.195770
v 11.365270 8.248271 13.195774
v 10.885583 8.248426 13.675462
v 10.885588 7.570046 13.675457
v 11.365274 7.569891 13.195770
v 10.885588 8.244490 -11.012278
v 11.365274 8.244255 -10.532591
v 11.365274 7.565875 -10.532591
v 10.885588 7.566110 -11.012278
vt 0.375000 0.740270
vt 0.375000 0.610027
vt 0.379858 0.738796
vt 0.379858 0.756231
vt 0.375000 0.993769
vt 0.868780 0.014754
vt 0.875000 0.014754
vt 0.875000 0.212374
vt 0.625000 0.756220
vt 0.763299 0.010065
vt 0.772415 0.013289
vt 0.625000 0.861694
vt 0.620143 0.009730
vt 0.631240 0.009730
vt 0.631240 0.137227
vt 0.620143 1.000000
vt 0.379858 0.993769
vt 0.379857 0.009730
vt 0.379857 0.137227
vt 0.625000 0.703893
vt 0.625000 0.709377
vt 0.625000 0.398898
vt 0.620570 0.398452
vt 0.380674 0.392686
vt 0.875000 0.237340
vt 0.868769 0.234998
vt 0.875000 0.233415
vt 0.620142 0.514133
vt 0.375000 0.509730
vt 0.379858 0.509870
vt 0.375000 0.596267
vt 0.375805 0.493769
vt 0.379788 0.398918
vt 0.375000 0.656687
vt 0.232316 0.138479
vt 0.226025 0.153894
vt 0.131231 0.153733
vt 0.131231 0.139973
vt 0.375000 0.750003
vt 0.375000 0.942425
vt 0.379858 0.758788
vt 0.620233 0.694121
vt 0.772436 0.142906
vt 0.868778 0.211525
vt 0.868769 0.233420
vt 0.625000 0.756273
vt 0.620323 0.758462
vt 0.625000 0.942425
vt 0.379858 0.951213
vt 0.620142 0.951213
vt 0.620142 0.942425
vt 0.620142 0.537626
vt 0.379858 0.608557
vt 0.379858 0.594612
vt 0.620142 0.756229
vt 0.620412 0.857139
vt 0.620143 0.993760
vt 0.620212 0.493769
vt 0.380250 0.493168
vt 0.620142 0.695001
vt 0.379857 0.656827
vt 0.379678 0.739033
vt 0.379858 0.942425
vt 0.620142 0.137228
vt 0.773975 0.192035
vt 0.773918 0.197478
vt 0.620142 0.518059
vt 0.226082 0.240270
vt 0.131231 0.240270
vt 0.763251 0.137137
vt 0.131231 0.009730
vt 0.368769 0.009730
vt 0.368769 0.137227
vt 0.375000 0.756231
vt 0.620142 0.735246
vt 0.625000 0.852580
vt 0.625000 0.993760
vt 0.379858 1.000000
vt 0.620959 0.392686
vt 0.625000 0.493444
vt 0.375805 0.398918
vt 0.375000 0.743063
vt 0.625000 0.750000
vt 0.625000 0.750000
vt 0.875000 0.222809
vt 0.375000 0.603153
vn 0.707106 -0.000000 -0.707108
vn 0.707106 -0.000000 -0.707108
vn 0.707106 -0.000000 -0.707108
vn 0.707106 -0.000000 -0.707108
vn 0.707107 -0.707107 0.000000
vn 0.707107 -0.707107 0.000000
vn 0.707107 -0.707107 0.000000
vn 0.707107 -0.707107 0.000000
vn 0.000000 -0.707107 -0.707107
vn 0.000000 -0.707107 -0.707107
vn 0.000000 -0.707107 -0.707107
vn 0.000000 -0.707107 -0.707107
vn 0.707107 0.000000 0.707106
vn 0.707107 0.000000 0.707106
vn 0.707107 0.000000 0.707106
vn 0.707107 0.000000 0.707106
vn 0.000516 -0.691003 0.722851
vn 0.000516 -0.691003 0.722851
vn 0.000504 -0.690607 0.723230
vn 0.000000 -0.690708 0.723134
vn 0.000000 -0.000000 1.000000
vn 0.000000 0.000000 1.000000
vn 0.000000 -0.000000 1.000000
vn 0.000000 -0.000000 1.000000
vn -0.000373 -0.690684 0.723156
vn -0.000380 -0.690977 0.722876
vn -0.000380 -0.690977 0.722876
vn -0.707107 0.000000 0.707107
vn -0.707107 0.000000 0.707107
vn -0.707107 0.000000 0.707107
vn -0.707107 0.000000 0.707107
vn -0.707107 -0.707107 0.000000
vn -0.707107 -0.707107 0.000000
vn -0.707107 -0.707107 0.000000
vn -0.707107 -0.707107 0.000000
vn -0.707107 0.000000 -0.707107
vn -0.707107 0.000000 -0.707107
vn -0.707107 0.000000 -0.707107
vn -0.707107 0.000000 -0.707107
vn -0.597211 0.443926 0.668034
vn -0.590560 0.459768 0.663213
vn -0.398880 0.389553 0.830147
vn -0.397645 0.390552 0.830270
vn 0.001610 0.632567 0.774504
vn 0.001610 0.632567 0.774504
vn 0.001610 0.632567 0.774504
vn 0.001610 0.632567 0.774504
vn -0.720484 0.683684 0.116101
vn -0.720484 0.683684 0.116101
vn -0.720484 0.683684 0.116101
vn -0.720484 0.683684 0.116101
vn 0.707102 -0.000008 0.707111
vn 0.707102 -0.000008 0.707111
vn 0.707107 -0.000001 0.707107
vn 0.707107 -0.000001 0.707107
vn 0.690307 0.713322 0.121029
vn 0.690307 0.713322 0.121029
vn 0.690307 0.713322 0.121029
vn 0.690307 0.713322 0.121029
vn 0.707106 0.000000 -0.707107
vn 0.707106 0.000000 -0.707107
vn 0.707106 0.000000 -0.707107
vn 0.707106 0.000000 -0.707107
vn 0.002371 0.782000 -0.623275
vn 0.002371 0.782000 -0.623275
vn 0.002371 0.782000 -0.623275
vn 0.002371 0.782000 -0.623274
vn -0.698789 0.001158 -0.715327
vn -0.698789 0.001158 -0.715327
vn -0.679658 0.065553 -0.730594
vn -0.676192 0.076145 -0.732780
vn 0.000000 -0.000000 -1.000000
vn 0.000000 -0.000000 -1.000000
vn 0.000000 -0.000000 -1.000000
vn 0.000000 -0.000000 -1.000000
vn -0.003285 0.740594 -0.671945
vn -0.003285 0.740594 -0.671945
vn -0.003285 0.740594 -0.671945
vn -0.003285 0.740594 -0.671945
vn -0.703746 0.710452 0.000130
vn -0.703746 0.710452 0.000130
vn -0.703746 0.710452 0.000130
vn -0.703746 0.710452 0.000130
vn 0.000000 -0.000007 1.000000
vn 0.000000 -0.000001 1.000000
vn 0.000000 -0.000007 1.000000
vn -0.046671 0.672469 0.738652
vn -0.045381 0.673235 0.738034
vn -0.000476 0.698776 0.715340
vn -0.000476 0.698776 0.715340
vn -0.707107 0.707107 0.000000
vn -0.707107 0.707107 0.000000
vn -0.707107 0.707107 0.000000
vn -0.707107 0.707107 0.000000
vn 1.000000 0.000001 0.000000
vn 1.000000 0.000000 0.000000
vn 1.000000 0.000000 0.000000
vn 1.000000 0.000001 0.000000
vn 0.000000 -1.000000 0.000000
vn 0.000000 -1.000000 0.000000
vn 0.000000 -1.000000 0.000000
vn 0.000000 -1.000000 0.000000
vn 0.000000 -1.000000 0.000000
vn 0.000000 0.985756 0.168182
vn 0.000000 0.985756 0.168182
vn 0.000000 0.985756 0.168182
vn 0.000000 0.985756 0.168182
vn -1.000000 0.000000 -0.000000
vn -1.000000 0.000000 -0.000000
vn -1.000000 0.000000 -0.000000
vn -1.000000 0.000000 -0.000000
vn 0.000000 1.000000 0.000000
vn 0.000000 1.000000 0.000000
vn 0.000000 1.000000 0.000000
vn 0.000000 1.000000 0.000000
vn -1.000000 0.000000 0.000000
vn -1.000000 0.000000 0.000000
vn -1.000000 0.000000 0.000000
vn -1.000000 0.000000 0.000000
vn 0.000000 -0.000020 1.000000
vn 0.000000 -0.000020 1.000000
vn 1.000000 -0.000000 0.000000
vn 1.000000 -0.000000 0.000000
vn -0.000000 0.000000 -1.000000
vn -0.000000 0.000000 -1.000000
vn 0.000000 0.000000 1.000000
vn 0.000000 -0.000000 1.000000
vn 0.000000 -0.000000 1.000000
vn 1.000000 0.000000 0.000000
vn 1.000000 0.000000 0.000000
vn -0.000000 0.000000 -1.000000
vn -0.000000 0.000000 -1.000000
vn -0.000000 0.000000 -1.000000
vn 0.577349 -0.577350 -0.577352
vn 0.577349 -0.577350 -0.577352
vn 0.577349 -0.577350 -0.577352
vn 0.577350 -0.577350 0.577350
vn 0.577350 -0.577350 0.577350
vn 0.577350 -0.577350 0.577350
vn -0.577350 -0.577350 0.577350
vn -0.577350 -0.577350 0.577350
vn -0.577350 -0.577350 0.577350
vn -0.577350 -0.577350 -0.577350
vn -0.577350 -0.577350 -0.577350
vn -0.577350 -0.577350 -0.577350
vn -0.581474 0.480499 0.656512
vn 0.552899 0.537366 0.636821
vn 0.552899 0.537366 0.636821
vn 0.552899 0.537366 0.636821
vn 0.581174 0.673678 -0.456503
vn 0.581174 0.673678 -0.456503
vn 0.581174 0.673678 -0.456503
vn -0.618128 0.600767 -0.506948
vn -0.618128 0.600767 -0.506948
vn -0.618128 0.600767 -0.506948
vn -0.518712 0.408077 -0.751273
vn -0.518712 0.408077 -0.751273
vn -0.393239 0.394106 0.830689
vn -0.577350 0.577350 -0.577350
vn -0.577350 0.577350 -0.577350
vn -0.577350 0.577350 -0.577350
vn -0.577350 0.577350 0.577350
vn -0.577350 0.577350 0.577350
vn -0.577350 0.577350 0.577350
s 1
g pCube3
usemtl initialShadingGroup
f 1/3/1 3/1/2 50/2/3 49/53/4
s off
f 2/4/5 1/3/6 6/75/7 5/55/8
f 3/74/9 2/4/10 14/17/11 13/5/12
s 2
f 4/6/13 6/7/14 46/8/15 45/44/16
s 3
f 5/55/17 4/9/18 9/76/19 8/56/20
s 4
f 7/10/21 9/11/22 32/43/23 36/70/24
s 3
f 8/56/20 7/12/25 10/77/26 12/57/27
s off
f 11/13/28 10/14/29 40/15/30 42/64/31
f 12/57/32 11/16/33 15/78/34 14/17/35
f 13/72/36 15/18/37 37/19/38 39/73/39
s 5
f 16/20/40 18/60/41 34/42/42 33/21/43
s off
f 17/23/44 16/22/45 21/80/46 20/58/47
f 18/79/48 17/23/49 26/33/50 25/24/51
s 2
f 19/25/52 21/26/53 44/45/54 43/27/55
s off
f 20/58/56 19/28/57 24/30/58 23/59/59
s 1
f 22/29/60 24/30/61 48/54/62 47/31/63
s off
f 23/59/64 22/32/65 27/81/66 26/33/67
s 6
f 25/61/68 27/34/69 31/82/70 30/62/71
s 7
f 28/35/72 31/36/73 47/37/74 50/38/75
s off
f 29/41/76 28/39/77 39/40/78 38/63/79
f 30/62/80 29/41/81 35/47/82 34/42/83
s 4
f 33/65/84 32/43/23 45/44/85 44/45/86
s 5
f 36/46/87 35/47/88 41/51/89 40/48/90
s off
f 38/63/91 37/49/92 42/50/93 41/51/94
s 8
f 43/67/95 46/52/96 49/53/97 48/54/98
s off
f 2/4/99 5/55/100 8/56/101 12/57/102 14/17/103
f 17/23/104 20/58/105 23/59/106 26/33/107
f 18/60/108 25/61/109 30/62/110 34/42/111
f 38/63/112 41/51/113 35/47/114 29/41/115
f 37/19/116 15/18/117 11/13/118 42/64/119
s 4
f 33/65/84 44/45/86 21/26/120 16/66/121
s 8
f 24/30/122 19/28/123 43/67/95 48/54/98
s 7
f 47/37/74 31/36/73 27/68/124 22/69/125
s 4
f 32/43/23 9/11/22 4/6/126 45/44/85
f 10/14/127 7/10/21 36/70/24 40/15/128
s 8
f 49/53/97 46/52/96 6/75/129 1/3/130
s 7
f 3/71/131 13/72/132 39/73/133 28/35/72 50/38/75
s off
f 1/3/134 2/4/135 3/74/136
f 4/9/137 5/55/138 6/75/139
s 3
f 7/12/25 8/56/20 9/76/19
s off
f 10/77/140 11/16/141 12/57/142
f 13/5/143 14/17/144 15/78/145
s 5
f 16/22/40 17/23/146 18/79/41
s off
f 19/28/147 20/58/148 21/80/149
f 22/32/150 23/59/151 24/30/152
f 25/24/153 26/33/154 27/81/155
s 6
f 28/39/156 29/41/157 30/62/71 31/82/70
s 5
f 32/83/158 33/21/43 34/42/42 35/47/88 36/84/87
s off
f 37/49/159 38/63/160 39/40/161
f 40/48/162 41/51/163 42/50/164
s 2
f 43/27/55 44/45/54 45/44/16 46/85/15
s 1
f 47/31/63 48/54/62 49/53/4 50/86/3
