# This file uses centimeters as units for non-parametric coordinates.

mtllib waterdrop.mtl
g default
v 8.751188 1.946410 -0.226070
v 8.927825 1.900988 -0.367823
v 9.148497 1.843834 -0.370439
v 9.328732 1.796721 -0.230181
v 9.777332 1.778515 0.000000
v 9.708126 1.796723 0.230182
v 9.527890 1.843835 0.370439
v 9.307219 1.900989 0.367822
v 9.130582 1.946412 0.226069
v 9.063583 1.963584 0.000000
v 6.570426 1.469741 -0.344430
v 6.834750 1.364378 -0.559530
v 7.161714 1.234086 -0.563633
v 7.425729 1.128793 -0.351261
v 8.057467 1.088636 0.000000
v 7.956875 1.128794 0.351261
v 7.692861 1.234087 0.563633
v 7.365897 1.364379 0.559530
v 7.101572 1.469741 0.344430
v 7.000839 1.509932 0.000000
v 4.850046 0.908233 -0.486702
v 5.170979 0.723073 -0.787358
v 5.566563 0.504916 -0.787045
v 5.872814 0.334522 -0.486266
v 5.972593 0.272135 0.000000
v 5.872814 0.334522 0.486266
v 5.566563 0.504916 0.787045
v 5.170979 0.723073 0.787357
v 4.850046 0.908233 0.486702
v 4.727517 0.984311 0.000000
v 2.019761 0.154856 -0.508001
v 2.493932 -0.075717 -0.901152
v 3.080651 -0.360158 -1.046473
v 3.555084 -0.590489 -0.696731
v 3.736201 -0.678560 0.000000
v 3.555083 -0.590489 0.696731
v 3.080651 -0.360158 1.046473
v 2.493932 -0.075717 0.901152
v 2.019761 0.154856 0.508001
v 1.838560 0.242849 -0.000000
v -0.484063 -0.360000 -0.691212
v -0.217598 -0.807797 -1.118631
v -0.201825 -1.482311 -1.118909
v -0.234110 -2.045589 -0.691661
v -0.393703 -2.313558 0.000000
v -0.234110 -2.045589 0.691661
v -0.201825 -1.482311 1.118909
v -0.217598 -0.807797 1.118631
v -0.484063 -0.360000 0.691211
v -0.614947 -0.200065 -0.000000
v -1.005377 -0.584191 -0.664609
v -0.791421 -1.031251 -1.075360
v -0.758993 -1.673158 -1.075360
v -0.820149 -2.343326 -0.664609
v -0.694299 -2.497105 0.000000
v -0.820148 -2.343325 0.664609
v -0.758993 -1.673157 1.075360
v -0.791421 -1.031251 1.075360
v -1.005377 -0.584191 0.664609
v -1.114661 -0.424036 0.000000
v -1.412990 -0.868071 -0.565350
v -1.328426 -1.285866 -0.914756
v -1.287862 -1.826907 -0.914756
v -1.313041 -2.404163 -0.565350
v -1.205987 -2.534975 0.000000
v -1.313041 -2.404163 0.565350
v -1.287860 -1.826907 0.914756
v -1.328426 -1.285866 0.914756
v -1.412990 -0.868071 0.565350
v -1.439162 -0.706129 0.000000
v -1.648229 -1.181007 -0.410751
v -1.678616 -1.519894 -0.664609
v -1.718663 -1.939740 -0.664609
v -1.683241 -2.311910 -0.410751
v -1.667504 -2.406951 0.000000
v -1.745280 -2.311910 0.410751
v -1.780703 -1.939740 0.664609
v -1.740655 -1.519894 0.664609
v -1.710268 -1.181007 0.410751
v -1.669248 -1.040241 0.000000
v -1.866970 -1.491924 -0.215945
v -1.821017 -1.684456 -0.349406
v -1.857652 -1.911180 -0.349406
v -1.929997 -2.072835 -0.215945
v -1.887099 -2.122029 0.000000
v -1.929997 -2.072835 0.215945
v -1.956914 -1.911180 0.349406
v -1.920281 -1.684456 0.349406
v -1.866970 -1.491924 0.215945
v -1.807051 -1.403157 0.000000
v 11.512817 2.482584 0.000000
v -1.969464 -1.771764 0.000000
vt 0.000000 0.100000
vt 0.100000 0.100000
vt 0.200000 0.100000
vt 0.300000 0.100000
vt 0.400000 0.100000
vt 0.500000 0.100000
vt 0.600000 0.100000
vt 0.700000 0.100000
vt 0.800000 0.100000
vt 0.900000 0.100000
vt 1.000000 0.100000
vt 0.000000 0.200000
vt 0.100000 0.200000
vt 0.200000 0.200000
vt 0.300000 0.200000
vt 0.400000 0.200000
vt 0.500000 0.200000
vt 0.600000 0.200000
vt 0.700000 0.200000
vt 0.800000 0.200000
vt 0.900000 0.200000
vt 1.000000 0.200000
vt 0.000000 0.300000
vt 0.100000 0.300000
vt 0.200000 0.300000
vt 0.300000 0.300000
vt 0.400000 0.300000
vt 0.500000 0.300000
vt 0.600000 0.300000
vt 0.700000 0.300000
vt 0.800000 0.300000
vt 0.900000 0.300000
vt 1.000000 0.300000
vt 0.000000 0.400000
vt 0.100000 0.400000
vt 0.200000 0.400000
vt 0.300000 0.400000
vt 0.400000 0.400000
vt 0.500000 0.400000
vt 0.600000 0.400000
vt 0.700000 0.400000
vt 0.800000 0.400000
vt 0.900000 0.400000
vt 1.000000 0.400000
vt 0.000000 0.500000
vt 0.100000 0.500000
vt 0.200000 0.500000
vt 0.300000 0.500000
vt 0.400000 0.500000
vt 0.500000 0.500000
vt 0.600000 0.500000
vt 0.700000 0.500000
vt 0.800000 0.500000
vt 0.900000 0.500000
vt 1.000000 0.500000
vt 0.000000 0.600000
vt 0.100000 0.600000
vt 0.200000 0.600000
vt 0.300000 0.600000
vt 0.400000 0.600000
vt 0.500000 0.600000
vt 0.600000 0.600000
vt 0.700000 0.600000
vt 0.800000 0.600000
vt 0.900000 0.600000
vt 1.000000 0.600000
vt 0.000000 0.700000
vt 0.100000 0.700000
vt 0.200000 0.700000
vt 0.300000 0.700000
vt 0.400000 0.700000
vt 0.500000 0.700000
vt 0.600000 0.700000
vt 0.700000 0.700000
vt 0.800000 0.700000
vt 0.900000 0.700000
vt 1.000000 0.700000
vt 0.000000 0.800000
vt 0.100000 0.800000
vt 0.200000 0.800000
vt 0.300000 0.800000
vt 0.400000 0.800000
vt 0.500000 0.800000
vt 0.600000 0.800000
vt 0.700000 0.800000
vt 0.800000 0.800000
vt 0.900000 0.800000
vt 1.000000 0.800000
vt 0.000000 0.900000
vt 0.100000 0.900000
vt 0.200000 0.900000
vt 0.300000 0.900000
vt 0.400000 0.900000
vt 0.500000 0.900000
vt 0.600000 0.900000
vt 0.700000 0.900000
vt 0.800000 0.900000
vt 0.900000 0.900000
vt 1.000000 0.900000
vt 0.050000 0.000000
vt 0.150000 0.000000
vt 0.250000 0.000000
vt 0.350000 0.000000
vt 0.450000 0.000000
vt 0.550000 0.000000
vt 0.650000 0.000000
vt 0.750000 0.000000
vt 0.850000 0.000000
vt 0.950000 0.000000
vt 0.050000 1.000000
vt 0.150000 1.000000
vt 0.250000 1.000000
vt 0.350000 1.000000
vt 0.450000 1.000000
vt 0.550000 1.000000
vt 0.650000 1.000000
vt 0.750000 1.000000
vt 0.850000 1.000000
vt 0.950000 1.000000
vn -0.156411 0.825610 -0.542130
vn -0.156411 0.825610 -0.542130
vn -0.156411 0.825610 -0.542130
vn -0.156411 0.825610 -0.542130
vn 0.045569 0.168430 -0.984660
vn 0.045569 0.168430 -0.984660
vn 0.045569 0.168430 -0.984660
vn 0.045569 0.168430 -0.984660
vn 0.282507 -0.698291 -0.657708
vn 0.282507 -0.698291 -0.657708
vn 0.282507 -0.698291 -0.657708
vn 0.282507 -0.698291 -0.657708
vn 0.293721 -0.728513 -0.618868
vn 0.293721 -0.728513 -0.618868
vn 0.293721 -0.728513 -0.618868
vn 0.293721 -0.728513 -0.618868
vn 0.363088 -0.910596 0.197438
vn 0.363088 -0.910596 0.197438
vn 0.363088 -0.910596 0.197438
vn 0.363088 -0.910596 0.197438
vn 0.300273 -0.677732 0.671204
vn 0.300273 -0.677732 0.671204
vn 0.300273 -0.677732 0.671204
vn 0.300273 -0.677732 0.671204
vn 0.047460 0.173916 0.983616
vn 0.047460 0.173916 0.983616
vn 0.047460 0.173916 0.983616
vn 0.047460 0.173916 0.983616
vn -0.165804 0.818149 0.550583
vn -0.165804 0.818148 0.550583
vn -0.165804 0.818148 0.550583
vn -0.165804 0.818148 0.550583
vn -0.214452 0.963552 0.159934
vn -0.214452 0.963552 0.159934
vn -0.214452 0.963552 0.159934
vn -0.214452 0.963552 0.159934
vn -0.215386 0.959036 0.184007
vn -0.215386 0.959036 0.184007
vn -0.215386 0.959036 0.184007
vn -0.215386 0.959036 0.184007
vn -0.194406 0.743756 -0.639557
vn -0.194406 0.743756 -0.639557
vn -0.194406 0.743756 -0.639557
vn -0.194406 0.743756 -0.639557
vn 0.070456 0.156815 -0.985112
vn 0.070456 0.156815 -0.985112
vn 0.070456 0.156815 -0.985112
vn 0.070456 0.156815 -0.985112
vn 0.366192 -0.586796 -0.722201
vn 0.366192 -0.586795 -0.722201
vn 0.366192 -0.586796 -0.722201
vn 0.366192 -0.586796 -0.722201
vn 0.378662 -0.819050 -0.431014
vn 0.378662 -0.819050 -0.431014
vn 0.378662 -0.819050 -0.431014
vn 0.378662 -0.819050 -0.431014
vn 0.358866 -0.912245 0.197548
vn 0.358866 -0.912245 0.197548
vn 0.358866 -0.912245 0.197548
vn 0.358866 -0.912245 0.197548
vn 0.298183 -0.662407 0.687244
vn 0.298183 -0.662407 0.687244
vn 0.298183 -0.662407 0.687244
vn 0.298183 -0.662407 0.687244
vn 0.060239 0.135671 0.988921
vn 0.060239 0.135671 0.988921
vn 0.060239 0.135671 0.988921
vn 0.060239 0.135671 0.988921
vn -0.157923 0.772893 0.614570
vn -0.157923 0.772893 0.614570
vn -0.157923 0.772893 0.614570
vn -0.157923 0.772893 0.614570
vn -0.223426 0.955290 0.193656
vn -0.223426 0.955290 0.193656
vn -0.223426 0.955290 0.193656
vn -0.223426 0.955290 0.193656
vn -0.261196 0.964531 -0.038174
vn -0.261196 0.964531 -0.038174
vn -0.261196 0.964531 -0.038174
vn -0.261196 0.964531 -0.038174
vn -0.189904 0.730866 -0.655569
vn -0.189904 0.730866 -0.655569
vn -0.189904 0.730866 -0.655569
vn -0.189904 0.730866 -0.655569
vn -0.012275 0.254969 -0.966871
vn -0.012275 0.254969 -0.966871
vn -0.012275 0.254969 -0.966871
vn -0.012275 0.254969 -0.966871
vn 0.298961 -0.609515 -0.734244
vn 0.298961 -0.609515 -0.734244
vn 0.298961 -0.609515 -0.734244
vn 0.298961 -0.609515 -0.734244
vn 0.380826 -0.901614 -0.205096
vn 0.380826 -0.901614 -0.205096
vn 0.380826 -0.901614 -0.205096
vn 0.380826 -0.901614 -0.205096
vn 0.380826 -0.901614 0.205096
vn 0.380826 -0.901614 0.205096
vn 0.380826 -0.901614 0.205096
vn 0.380826 -0.901614 0.205096
vn 0.298961 -0.609515 0.734244
vn 0.298961 -0.609515 0.734244
vn 0.298961 -0.609515 0.734244
vn 0.298961 -0.609515 0.734244
vn -0.012275 0.254970 0.966871
vn -0.012275 0.254970 0.966871
vn -0.012275 0.254970 0.966871
vn -0.012275 0.254970 0.966871
vn -0.189904 0.730866 0.655569
vn -0.189904 0.730866 0.655569
vn -0.189904 0.730866 0.655569
vn -0.189904 0.730866 0.655569
vn -0.245280 0.941718 0.230228
vn -0.245280 0.941718 0.230228
vn -0.245280 0.941718 0.230228
vn -0.245280 0.941718 0.230228
vn -0.245280 0.941718 -0.230228
vn -0.245280 0.941718 -0.230228
vn -0.245280 0.941718 -0.230228
vn -0.245280 0.941718 -0.230228
vn -0.116761 0.711139 -0.693288
vn -0.116761 0.711139 -0.693288
vn -0.116761 0.711139 -0.693288
vn -0.116761 0.711139 -0.693288
vn 0.001158 0.150821 -0.988560
vn 0.001158 0.150821 -0.988560
vn 0.001158 0.150821 -0.988560
vn 0.001158 0.150821 -0.988560
vn 0.230330 -0.612226 -0.756391
vn 0.230330 -0.612226 -0.756391
vn 0.230330 -0.612226 -0.756391
vn 0.230330 -0.612226 -0.756391
vn 0.352977 -0.904975 -0.237544
vn 0.352977 -0.904975 -0.237545
vn 0.352977 -0.904975 -0.237545
vn 0.352977 -0.904975 -0.237544
vn 0.352977 -0.904975 0.237545
vn 0.352977 -0.904975 0.237545
vn 0.352977 -0.904975 0.237545
vn 0.352977 -0.904975 0.237545
vn 0.230330 -0.612226 0.756391
vn 0.230330 -0.612226 0.756391
vn 0.230330 -0.612226 0.756391
vn 0.230330 -0.612226 0.756391
vn 0.001158 0.150822 0.988560
vn 0.001158 0.150822 0.988560
vn 0.001158 0.150822 0.988560
vn 0.001158 0.150822 0.988560
vn -0.116761 0.711139 0.693288
vn -0.116761 0.711139 0.693288
vn -0.116761 0.711139 0.693288
vn -0.116761 0.711139 0.693288
vn -0.175354 0.954075 0.242882
vn -0.175354 0.954075 0.242882
vn -0.175354 0.954075 0.242882
vn -0.175354 0.954075 0.242882
vn -0.175354 0.954075 -0.242882
vn -0.175354 0.954075 -0.242882
vn -0.175354 0.954075 -0.242882
vn -0.175354 0.954075 -0.242882
vn -0.282447 0.570626 -0.771110
vn -0.282447 0.570626 -0.771110
vn -0.282447 0.570626 -0.771110
vn -0.282447 0.570626 -0.771110
vn -0.075607 -0.002558 -0.997134
vn -0.075607 -0.002558 -0.997134
vn -0.075607 -0.002558 -0.997134
vn -0.075607 -0.002558 -0.997134
vn 0.190252 -0.561525 -0.805291
vn 0.190252 -0.561525 -0.805291
vn 0.190252 -0.561525 -0.805291
vn 0.190252 -0.561525 -0.805291
vn 0.455423 -0.853271 -0.254004
vn 0.455423 -0.853271 -0.254004
vn 0.455423 -0.853271 -0.254004
vn 0.455423 -0.853271 -0.254004
vn 0.455423 -0.853271 0.254004
vn 0.455423 -0.853271 0.254004
vn 0.455423 -0.853271 0.254004
vn 0.455423 -0.853271 0.254004
vn 0.190252 -0.561525 0.805291
vn 0.190252 -0.561525 0.805291
vn 0.190252 -0.561525 0.805291
vn 0.190252 -0.561525 0.805291
vn -0.075607 -0.002558 0.997134
vn -0.075607 -0.002558 0.997134
vn -0.075607 -0.002558 0.997134
vn -0.075607 -0.002558 0.997134
vn -0.282447 0.570626 0.771110
vn -0.282447 0.570626 0.771110
vn -0.282447 0.570626 0.771110
vn -0.282447 0.570626 0.771110
vn -0.392271 0.877278 0.276600
vn -0.392271 0.877278 0.276600
vn -0.392271 0.877278 0.276600
vn -0.392271 0.877278 0.276600
vn -0.392271 0.877278 -0.276599
vn -0.392271 0.877278 -0.276599
vn -0.392271 0.877278 -0.276599
vn -0.392271 0.877278 -0.276599
vn -0.476850 0.481661 -0.735266
vn -0.476850 0.481661 -0.735266
vn -0.476850 0.481661 -0.735266
vn -0.476850 0.481661 -0.735266
vn -0.282370 -0.017423 -0.959147
vn -0.282370 -0.017423 -0.959147
vn -0.282370 -0.017423 -0.959147
vn -0.282370 -0.017423 -0.959147
vn -0.109258 -0.511734 -0.852168
vn -0.109258 -0.511734 -0.852168
vn -0.109258 -0.511734 -0.852168
vn -0.109258 -0.511734 -0.852168
vn 0.071693 -0.968686 -0.237713
vn 0.071693 -0.968686 -0.237713
vn 0.071693 -0.968686 -0.237713
vn 0.071693 -0.968686 -0.237713
vn 0.071693 -0.968686 0.237713
vn 0.071693 -0.968686 0.237713
vn 0.071693 -0.968686 0.237713
vn 0.071693 -0.968686 0.237713
vn -0.109259 -0.511734 0.852169
vn -0.109259 -0.511734 0.852168
vn -0.109259 -0.511734 0.852168
vn -0.109259 -0.511734 0.852169
vn -0.282371 -0.017423 0.959147
vn -0.282371 -0.017423 0.959147
vn -0.282371 -0.017423 0.959147
vn -0.282371 -0.017423 0.959147
vn -0.476850 0.481662 0.735266
vn -0.476850 0.481662 0.735266
vn -0.476850 0.481661 0.735266
vn -0.476850 0.481662 0.735266
vn -0.612173 0.745801 0.262726
vn -0.612173 0.745801 0.262726
vn -0.612173 0.745801 0.262726
vn -0.612173 0.745801 0.262726
vn -0.612173 0.745801 -0.262726
vn -0.612173 0.745801 -0.262726
vn -0.612173 0.745801 -0.262726
vn -0.612173 0.745801 -0.262726
vn -0.740666 0.385613 -0.550198
vn -0.740666 0.385613 -0.550198
vn -0.740666 0.385613 -0.550198
vn -0.740666 0.385613 -0.550198
vn -0.539313 -0.000290 -0.842105
vn -0.539313 -0.000290 -0.842105
vn -0.539313 -0.000290 -0.842105
vn -0.539313 -0.000290 -0.842105
vn -0.380627 -0.498850 -0.778634
vn -0.380627 -0.498850 -0.778634
vn -0.380627 -0.498850 -0.778634
vn -0.380627 -0.498850 -0.778634
vn -0.283245 -0.941575 -0.182233
vn -0.283245 -0.941575 -0.182233
vn -0.283245 -0.941575 -0.182233
vn -0.283245 -0.941575 -0.182233
vn -0.263422 -0.949611 0.169845
vn -0.263422 -0.949611 0.169845
vn -0.263422 -0.949611 0.169845
vn -0.263422 -0.949611 0.169845
vn -0.335823 -0.507728 0.793369
vn -0.335823 -0.507728 0.793369
vn -0.335823 -0.507729 0.793369
vn -0.335823 -0.507728 0.793369
vn -0.483701 -0.000261 0.875233
vn -0.483701 -0.000261 0.875233
vn -0.483701 -0.000261 0.875233
vn -0.483701 -0.000261 0.875233
vn -0.674163 0.430306 0.600284
vn -0.674163 0.430306 0.600284
vn -0.674163 0.430305 0.600284
vn -0.674163 0.430306 0.600284
vn -0.783299 0.597021 0.173232
vn -0.783299 0.597021 0.173232
vn -0.783299 0.597021 0.173232
vn -0.783299 0.597021 0.173232
vn -0.817089 0.538284 -0.206436
vn -0.817089 0.538284 -0.206436
vn -0.817089 0.538284 -0.206436
vn -0.817089 0.538284 -0.206436
vn -0.885353 0.256623 -0.387680
vn -0.885353 0.256623 -0.387680
vn -0.885353 0.256623 -0.387680
vn -0.885353 0.256623 -0.387680
vn -0.916268 0.108667 -0.385545
vn -0.916268 0.108667 -0.385545
vn -0.916268 0.108667 -0.385545
vn -0.916268 0.108667 -0.385545
vn -0.830395 -0.288439 -0.476704
vn -0.830395 -0.288439 -0.476704
vn -0.830395 -0.288439 -0.476704
vn -0.830395 -0.288439 -0.476704
vn -0.758926 -0.646513 -0.077791
vn -0.758926 -0.646513 -0.077791
vn -0.758926 -0.646513 -0.077791
vn -0.758926 -0.646513 -0.077791
vn -0.789711 -0.613383 -0.010891
vn -0.789711 -0.613383 -0.010891
vn -0.789711 -0.613383 -0.010891
vn -0.789711 -0.613383 -0.010891
vn -0.836967 -0.382038 0.391833
vn -0.836967 -0.382038 0.391833
vn -0.836967 -0.382038 0.391833
vn -0.836967 -0.382038 0.391833
vn -0.875561 0.103839 0.471816
vn -0.875561 0.103839 0.471816
vn -0.875561 0.103839 0.471816
vn -0.875561 0.103839 0.471816
vn -0.898923 0.341551 0.274372
vn -0.898923 0.341551 0.274372
vn -0.898923 0.341551 0.274372
vn -0.898923 0.341551 0.274372
vn -0.916218 0.400678 -0.000821
vn -0.916218 0.400679 -0.000821
vn -0.916218 0.400679 -0.000821
vn -0.916218 0.400678 -0.000821
vn -0.891257 0.440898 -0.106160
vn -0.891257 0.440898 -0.106160
vn -0.891257 0.440898 -0.106160
vn -0.891257 0.440898 -0.106160
vn -0.134493 0.882631 -0.450415
vn -0.134493 0.882631 -0.450415
vn -0.134493 0.882631 -0.450415
vn 0.067151 0.302787 -0.950690
vn 0.067151 0.302787 -0.950690
vn 0.067151 0.302787 -0.950690
vn 0.293611 -0.726465 -0.621322
vn 0.293611 -0.726465 -0.621322
vn 0.293611 -0.726465 -0.621322
vn 0.292703 -0.721493 -0.627513
vn 0.292703 -0.721493 -0.627513
vn 0.292703 -0.721493 -0.627513
vn 0.369571 -0.910969 0.183173
vn 0.369571 -0.910969 0.183173
vn 0.369571 -0.910969 0.183173
vn 0.338872 -0.669991 0.660514
vn 0.338872 -0.669991 0.660514
vn 0.338872 -0.669991 0.660514
vn 0.072346 0.322529 0.943791
vn 0.072346 0.322529 0.943791
vn 0.072346 0.322529 0.943791
vn -0.151570 0.870702 0.467873
vn -0.151570 0.870702 0.467873
vn -0.151570 0.870702 0.467873
vn -0.205416 0.969387 0.134512
vn -0.205416 0.969387 0.134512
vn -0.205416 0.969387 0.134512
vn -0.202787 0.956980 0.207525
vn -0.202787 0.956980 0.207525
vn -0.202787 0.956980 0.207525
vn -0.923395 0.043941 -0.381329
vn -0.923395 0.043941 -0.381329
vn -0.923395 0.043941 -0.381329
vn -0.922951 0.149131 -0.354855
vn -0.922951 0.149131 -0.354855
vn -0.922951 0.149131 -0.354855
vn -0.928609 0.128060 -0.348260
vn -0.928609 0.128060 -0.348260
vn -0.928610 0.128060 -0.348260
vn -0.963882 -0.226658 0.139845
vn -0.963883 -0.226658 0.139845
vn -0.963883 -0.226658 0.139845
vn -0.963883 -0.226658 -0.139845
vn -0.963882 -0.226658 -0.139845
vn -0.963883 -0.226658 -0.139845
vn -0.989033 -0.145938 -0.022707
vn -0.989033 -0.145938 -0.022707
vn -0.989033 -0.145938 -0.022707
vn -0.982384 0.158733 0.098618
vn -0.982384 0.158733 0.098618
vn -0.982384 0.158733 0.098618
vn -0.951045 0.303555 0.058023
vn -0.951046 0.303555 0.058023
vn -0.951046 0.303555 0.058023
vn -0.911571 0.401651 -0.087839
vn -0.911571 0.401651 -0.087839
vn -0.911571 0.401651 -0.087839
vn -0.911571 0.401650 0.087839
vn -0.911571 0.401650 0.087839
vn -0.911571 0.401650 0.087839
s off
g pSphere1
usemtl initialShadingGroup
f 1/1/1 2/2/2 12/13/3 11/12/4
f 2/2/5 3/3/6 13/14/7 12/13/8
f 3/3/9 4/4/10 14/15/11 13/14/12
f 4/4/13 5/5/14 15/16/15 14/15/16
f 5/5/17 6/6/18 16/17/19 15/16/20
f 6/6/21 7/7/22 17/18/23 16/17/24
f 7/7/25 8/8/26 18/19/27 17/18/28
f 8/8/29 9/9/30 19/20/31 18/19/32
f 9/9/33 10/10/34 20/21/35 19/20/36
f 10/10/37 1/11/38 11/22/39 20/21/40
f 11/12/41 12/13/42 22/24/43 21/23/44
f 12/13/45 13/14/46 23/25/47 22/24/48
f 13/14/49 14/15/50 24/26/51 23/25/52
f 14/15/53 15/16/54 25/27/55 24/26/56
f 15/16/57 16/17/58 26/28/59 25/27/60
f 16/17/61 17/18/62 27/29/63 26/28/64
f 17/18/65 18/19/66 28/30/67 27/29/68
f 18/19/69 19/20/70 29/31/71 28/30/72
f 19/20/73 20/21/74 30/32/75 29/31/76
f 20/21/77 11/22/78 21/33/79 30/32/80
f 21/23/81 22/24/82 32/35/83 31/34/84
f 22/24/85 23/25/86 33/36/87 32/35/88
f 23/25/89 24/26/90 34/37/91 33/36/92
f 24/26/93 25/27/94 35/38/95 34/37/96
f 25/27/97 26/28/98 36/39/99 35/38/100
f 26/28/101 27/29/102 37/40/103 36/39/104
f 27/29/105 28/30/106 38/41/107 37/40/108
f 28/30/109 29/31/110 39/42/111 38/41/112
f 29/31/113 30/32/114 40/43/115 39/42/116
f 30/32/117 21/33/118 31/44/119 40/43/120
f 31/34/121 32/35/122 42/46/123 41/45/124
f 32/35/125 33/36/126 43/47/127 42/46/128
f 33/36/129 34/37/130 44/48/131 43/47/132
f 34/37/133 35/38/134 45/49/135 44/48/136
f 35/38/137 36/39/138 46/50/139 45/49/140
f 36/39/141 37/40/142 47/51/143 46/50/144
f 37/40/145 38/41/146 48/52/147 47/51/148
f 38/41/149 39/42/150 49/53/151 48/52/152
f 39/42/153 40/43/154 50/54/155 49/53/156
f 40/43/157 31/44/158 41/55/159 50/54/160
f 41/45/161 42/46/162 52/57/163 51/56/164
f 42/46/165 43/47/166 53/58/167 52/57/168
f 43/47/169 44/48/170 54/59/171 53/58/172
f 44/48/173 45/49/174 55/60/175 54/59/176
f 45/49/177 46/50/178 56/61/179 55/60/180
f 46/50/181 47/51/182 57/62/183 56/61/184
f 47/51/185 48/52/186 58/63/187 57/62/188
f 48/52/189 49/53/190 59/64/191 58/63/192
f 49/53/193 50/54/194 60/65/195 59/64/196
f 50/54/197 41/55/198 51/66/199 60/65/200
f 51/56/201 52/57/202 62/68/203 61/67/204
f 52/57/205 53/58/206 63/69/207 62/68/208
f 53/58/209 54/59/210 64/70/211 63/69/212
f 54/59/213 55/60/214 65/71/215 64/70/216
f 55/60/217 56/61/218 66/72/219 65/71/220
f 56/61/221 57/62/222 67/73/223 66/72/224
f 57/62/225 58/63/226 68/74/227 67/73/228
f 58/63/229 59/64/230 69/75/231 68/74/232
f 59/64/233 60/65/234 70/76/235 69/75/236
f 60/65/237 51/66/238 61/77/239 70/76/240
f 61/67/241 62/68/242 72/79/243 71/78/244
f 62/68/245 63/69/246 73/80/247 72/79/248
f 63/69/249 64/70/250 74/81/251 73/80/252
f 64/70/253 65/71/254 75/82/255 74/81/256
f 65/71/257 66/72/258 76/83/259 75/82/260
f 66/72/261 67/73/262 77/84/263 76/83/264
f 67/73/265 68/74/266 78/85/267 77/84/268
f 68/74/269 69/75/270 79/86/271 78/85/272
f 69/75/273 70/76/274 80/87/275 79/86/276
f 70/76/277 61/77/278 71/88/279 80/87/280
f 71/78/281 72/79/282 82/90/283 81/89/284
f 72/79/285 73/80/286 83/91/287 82/90/288
f 73/80/289 74/81/290 84/92/291 83/91/292
f 74/81/293 75/82/294 85/93/295 84/92/296
f 75/82/297 76/83/298 86/94/299 85/93/300
f 76/83/301 77/84/302 87/95/303 86/94/304
f 77/84/305 78/85/306 88/96/307 87/95/308
f 78/85/309 79/86/310 89/97/311 88/96/312
f 79/86/313 80/87/314 90/98/315 89/97/316
f 80/87/317 71/88/318 81/99/319 90/98/320
f 2/2/321 1/1/322 91/100/323
f 3/3/324 2/2/325 91/101/326
f 4/4/327 3/3/328 91/102/329
f 5/5/330 4/4/331 91/103/332
f 6/6/333 5/5/334 91/104/335
f 7/7/336 6/6/337 91/105/338
f 8/8/339 7/7/340 91/106/341
f 9/9/342 8/8/343 91/107/344
f 10/10/345 9/9/346 91/108/347
f 1/11/348 10/10/349 91/109/350
f 81/89/351 82/90/352 92/110/353
f 82/90/354 83/91/355 92/111/356
f 83/91/357 84/92/358 92/112/359
f 84/92/360 85/93/361 92/113/362
f 85/93/363 86/94/364 92/114/365
f 86/94/366 87/95/367 92/115/368
f 87/95/369 88/96/370 92/116/371
f 88/96/372 89/97/373 92/117/374
f 89/97/375 90/98/376 92/118/377
f 90/98/378 81/99/379 92/119/380
g default
v -1.633868 -9.257744 3.041278
v 14.508227 -2.845433 3.041278
v -3.879423 -3.604871 3.041278
v 12.262671 2.807439 3.041278
v -3.879423 -3.604871 -3.041278
v 12.262671 2.807439 -3.041278
v -1.633868 -9.257744 -3.041278
v 14.508227 -2.845433 -3.041278
vt 0.375000 0.000000
vt 0.625000 0.000000
vt 0.375000 0.250000
vt 0.625000 0.250000
vt 0.375000 0.500000
vt 0.625000 0.500000
vt 0.375000 0.750000
vt 0.625000 0.750000
vt 0.375000 1.000000
vt 0.625000 1.000000
vt 0.875000 0.000000
vt 0.875000 0.250000
vt 0.125000 0.000000
vt 0.125000 0.250000
vn 0.000000 0.000000 1.000000
vn 0.000000 0.000000 1.000000
vn 0.000000 0.000000 1.000000
vn 0.000000 0.000000 1.000000
vn -0.369180 0.929358 0.000000
vn -0.369180 0.929358 0.000000
vn -0.369180 0.929358 0.000000
vn -0.369180 0.929358 0.000000
vn 0.000000 0.000000 -1.000000
vn 0.000000 0.000000 -1.000000
vn 0.000000 0.000000 -1.000000
vn 0.000000 0.000000 -1.000000
vn 0.369180 -0.929358 0.000000
vn 0.369180 -0.929358 0.000000
vn 0.369180 -0.929358 0.000000
vn 0.369180 -0.929358 0.000000
vn 0.929358 0.369180 0.000000
vn 0.929358 0.369180 0.000000
vn 0.929358 0.369180 0.000000
vn 0.929358 0.369180 0.000000
vn -0.929358 -0.369180 0.000000
vn -0.929358 -0.369180 0.000000
vn -0.929358 -0.369180 0.000000
vn -0.929358 -0.369180 0.000000
s off
g pCube1
usemtl initialShadingGroup
f 93/120/381 94/121/382 96/123/383 95/122/384
f 95/122/385 96/123/386 98/125/387 97/124/388
f 97/124/389 98/125/390 100/127/391 99/126/392
f 99/126/393 100/127/394 94/129/395 93/128/396
f 94/121/397 100/130/398 98/131/399 96/123/400
f 99/132/401 93/120/402 95/122/403 97/133/404
