# This file uses centimeters as units for non-parametric coordinates.

mtllib Wall_long.mtl
g default
v -34.189621 -1.166447 -19.654354
v -34.189621 -0.763535 -18.945200
v -34.247601 -0.763535 -19.654354
v -34.020996 -0.763535 -19.654354
v -34.078979 -0.763535 -18.945200
v -34.078979 -1.166446 -19.654354
v -34.247601 1.416701 -19.654354
v -34.189621 1.416701 -18.945200
v -34.189621 1.819613 -19.654354
v -34.078979 1.819612 -19.654354
v -34.078979 1.416701 -18.945200
v -34.020996 1.416701 -19.654354
v -34.247601 1.416701 -23.672054
v -34.189621 1.819612 -23.672054
v -34.189621 1.416701 -24.381212
v -34.078979 1.416701 -24.381212
v -34.078979 1.819612 -23.672054
v -34.020996 1.416701 -23.672054
v -34.247601 -0.763535 -23.672054
v -34.189621 -0.763535 -24.381212
v -34.189621 -1.166446 -23.672054
v -34.078979 -1.166446 -23.672054
v -34.078979 -0.763535 -24.381212
v -34.020996 -0.763535 -23.672054
v -34.227612 1.799621 -23.670055
v -34.254265 1.417367 -21.663202
v -34.187626 1.799621 -18.965189
v -34.134300 1.417367 -18.938538
v -34.080982 1.799621 -18.965189
v -34.134300 1.826276 -19.653687
v -34.040993 1.799621 -19.656351
v -34.014332 1.417367 -21.663202
v -34.040993 1.799621 -23.670055
v -34.078312 1.826276 -21.663202
v -34.227612 1.414701 -24.361221
v -34.190289 0.326583 -24.387878
v -34.227612 -0.761535 -24.361221
v -34.254265 0.326583 -23.672722
v -34.187626 1.799621 -24.361221
v -34.134300 1.826276 -23.672722
v -34.080982 1.799621 -24.361221
v -34.134300 1.417367 -24.387878
v -34.040993 1.414701 -24.361221
v -34.014332 0.326583 -23.672722
v -34.040993 -0.761535 -24.361221
v -34.078312 0.326583 -24.387878
v -34.187626 -1.146455 -24.361221
v -34.134300 -0.764201 -24.387878
v -34.080982 -1.146455 -24.361221
v -34.134300 -1.173110 -23.672722
v -34.227612 -1.146455 -19.656351
v -34.254265 -0.764201 -21.663202
v -34.227612 -1.146455 -23.670055
v -34.190289 -1.173110 -21.663202
v -34.187626 -1.146455 -18.965189
v -34.134300 -1.173110 -19.653687
v -34.080982 -1.146455 -18.965189
v -34.134300 -0.764201 -18.938538
v -34.227612 -0.761535 -18.965189
v -34.190289 0.326583 -18.938538
v -34.227612 1.414701 -18.965189
v -34.254265 0.326583 -19.653687
v -34.040993 -1.146455 -19.656351
v -34.078312 -1.173110 -21.663202
v -34.040993 -1.146455 -23.670055
v -34.014332 -0.764201 -21.663202
v -34.040993 -0.761535 -18.965189
v -34.014332 0.326583 -19.653687
v -34.040993 1.414701 -18.965189
v -34.078312 0.326583 -18.938538
v -34.227612 1.799621 -19.656351
v -34.190289 1.826276 -21.663202
v -34.230274 -1.149120 -21.663202
v -34.134300 -1.149120 -18.962524
v -34.230274 0.326583 -18.962524
v -34.038322 -1.149120 -21.663202
v -34.038322 0.326583 -18.962524
v -34.230274 1.802286 -21.663202
v -34.134300 1.802286 -18.962524
v -34.038322 1.802286 -21.663202
v -34.230274 0.326583 -24.363886
v -34.134300 1.802286 -24.363886
v -34.038322 0.326583 -24.363886
v -34.134300 -1.149120 -24.363886
v -34.134300 0.326583 -18.930538
v -34.134300 1.834273 -21.663202
v -34.134300 0.326583 -24.395876
v -34.134300 -1.181107 -21.663202
v -34.006332 0.326583 -21.663202
v -34.262260 0.326583 -21.663202
v -34.219612 -1.138458 -18.973186
v -34.048988 -1.138458 -18.973186
v -34.219612 1.791624 -18.973186
v -34.048988 1.791624 -18.973186
v -34.219612 1.791624 -24.353224
v -34.048988 1.791624 -24.353224
v -34.219612 -1.138458 -24.353224
v -34.048988 -1.138458 -24.353224
vt 0.437492 0.997074
vt 0.437492 0.000000
vt 0.445623 0.034620
vt 0.375000 0.997074
vt 0.372074 0.005304
vt 0.625000 0.997074
vt 0.627926 0.005304
vt 0.554377 0.034620
vt 0.562508 0.000000
vt 0.562508 0.997074
vt 0.372074 0.244696
vt 0.375000 0.252926
vt 0.445623 0.215715
vt 0.437492 0.252926
vt 0.562508 0.252926
vt 0.554377 0.215715
vt 0.627926 0.244696
vt 0.625000 0.252930
vt 0.375000 0.497074
vt 0.375000 0.505304
vt 0.127926 0.244696
vt 0.445959 0.467498
vt 0.437492 0.505304
vt 0.562508 0.505304
vt 0.554041 0.467498
vt 0.625000 0.497074
vt 0.872074 0.244696
vt 0.625000 0.505308
vt 0.375000 0.752926
vt 0.127926 0.005304
vt 0.375000 0.744696
vt 0.445959 0.715715
vt 0.437492 0.752926
vt 0.562508 0.752926
vt 0.554041 0.715715
vt 0.625000 0.752930
vt 0.625000 0.744696
vt 0.872074 0.005304
vt 0.406246 0.875000
vt 0.500000 0.002652
vt 0.404783 0.125000
vt 0.593754 0.875001
vt 0.595217 0.125000
vt 0.406246 0.375000
vt 0.500000 0.248811
vt 0.593754 0.375001
vt 0.406246 0.625000
vt 0.500000 0.501189
vt 0.593754 0.625001
vt 0.500000 0.748811
vt 0.500000 0.125000
vt 0.500000 0.375000
vt 0.500000 0.625000
vt 0.500000 0.875000
vt 0.750000 0.125000
vt 0.250000 0.125000
vt 0.415686 0.003536
vt 0.584314 0.003536
vt 0.415686 0.247439
vt 0.584314 0.247439
vt 0.416662 0.499817
vt 0.583338 0.499817
vt 0.416662 0.747440
vt 0.583338 0.747440
vt 0.406246 0.997074
vt 0.404783 0.002652
vt 0.375000 0.875000
vt 0.250000 0.005304
vt 0.406246 0.752926
vt 0.406246 0.748811
vt 0.445308 0.875000
vt 0.447668 0.002873
vt 0.500000 0.000000
vt 0.500000 0.997074
vt 0.552332 0.002873
vt 0.500000 0.034565
vt 0.407509 0.034786
vt 0.444942 0.125000
vt 0.407509 0.215458
vt 0.349733 0.125000
vt 0.593754 0.997074
vt 0.595217 0.002652
vt 0.554692 0.875000
vt 0.593754 0.752928
vt 0.593754 0.748811
vt 0.625000 0.875002
vt 0.750000 0.005304
vt 0.592491 0.034786
vt 0.650267 0.125000
vt 0.592491 0.215458
vt 0.555058 0.125000
vt 0.406246 0.252926
vt 0.404783 0.248811
vt 0.445308 0.375000
vt 0.408850 0.467241
vt 0.375000 0.375000
vt 0.250000 0.244696
vt 0.447668 0.248468
vt 0.500000 0.215801
vt 0.552332 0.248468
vt 0.500000 0.282416
vt 0.593754 0.252928
vt 0.595217 0.248811
vt 0.625000 0.375002
vt 0.750000 0.244696
vt 0.591150 0.467241
vt 0.554692 0.375000
vt 0.406246 0.505304
vt 0.406246 0.501189
vt 0.445308 0.625000
vt 0.408850 0.715458
vt 0.375000 0.625000
vt 0.127926 0.125000
vt 0.447912 0.500846
vt 0.500000 0.467584
vt 0.552088 0.500846
vt 0.500000 0.534199
vt 0.593754 0.505306
vt 0.593754 0.501189
vt 0.625000 0.625002
vt 0.872074 0.125000
vt 0.591150 0.715458
vt 0.554692 0.625000
vt 0.447912 0.748468
vt 0.500000 0.715801
vt 0.552088 0.748468
vt 0.500000 0.782416
vn -0.272220 -0.962191 0.009177
vn -0.989607 -0.143618 0.007222
vn -0.988898 -0.148597 -0.000000
vn -0.295813 -0.955246 -0.000000
vn -0.999789 -0.018048 0.009850
vn -0.999802 -0.019881 0.000000
vn -0.999789 -0.018050 -0.009850
vn -0.989606 -0.143622 -0.007222
vn -0.272215 -0.962193 -0.009177
vn -0.272010 -0.016802 0.962148
vn -0.250135 -0.841708 0.478498
vn 0.000001 -0.868591 0.495529
vn -0.000000 -0.019831 0.999803
vn -0.000000 -0.999941 0.010846
vn 0.272219 -0.962192 0.009177
vn 0.250131 -0.841718 0.478482
vn 0.272013 -0.016803 0.962147
vn -0.996529 -0.012984 0.082231
vn -0.996350 0.000000 0.085366
vn -0.999941 0.000000 0.010860
vn -0.295669 -0.000000 0.955290
vn -0.272027 0.016802 0.962143
vn -0.996529 0.012983 0.082231
vn -0.999789 0.018047 0.009850
vn 0.999789 -0.018054 0.009852
vn 0.989604 -0.143639 0.007224
vn 0.988895 -0.148617 -0.000000
vn 0.999802 -0.019888 -0.000000
vn 0.295817 -0.955245 -0.000000
vn 0.272219 -0.962192 -0.009177
vn 0.989604 -0.143636 -0.007224
vn 0.999789 -0.018054 -0.009852
vn 0.996528 -0.012984 0.082237
vn 0.996349 0.000000 0.085371
vn 0.295669 0.000000 0.955290
vn 0.999941 0.000000 0.010863
vn 0.999788 0.018055 0.009852
vn 0.996528 0.012985 0.082237
vn 0.272028 0.016802 0.962143
vn -0.989607 0.143618 0.007222
vn -0.988898 0.148597 0.000000
vn -0.999802 0.019881 0.000000
vn -0.272219 0.962192 0.009177
vn -0.295814 0.955246 0.000000
vn -0.272214 0.962193 -0.009177
vn -0.989606 0.143623 -0.007222
vn -0.999789 0.018050 -0.009850
vn -0.250137 0.841707 0.478498
vn -0.000000 0.868591 0.495529
vn 0.000000 0.999941 0.010845
vn -0.000000 0.019831 0.999803
vn 0.250134 0.841719 0.478478
vn 0.272218 0.962192 0.009177
vn 0.989604 0.143641 0.007224
vn 0.988895 0.148617 -0.000000
vn 0.295818 0.955244 0.000000
vn 0.999802 0.019888 0.000000
vn 0.999789 0.018054 -0.009852
vn 0.989604 0.143635 -0.007224
vn 0.272221 0.962191 -0.009177
vn -0.996529 0.012984 -0.082231
vn -0.996350 0.000000 -0.085366
vn -0.999941 0.000000 -0.010860
vn -0.272078 0.016803 -0.962128
vn -0.295749 -0.000000 -0.955266
vn -0.272085 -0.016804 -0.962127
vn -0.996529 -0.012984 -0.082231
vn -0.250141 0.841709 -0.478494
vn 0.000001 0.868592 -0.495528
vn 0.000000 0.019834 -0.999803
vn -0.000001 0.999941 -0.010846
vn 0.250148 0.841710 -0.478488
vn 0.272081 0.016805 -0.962128
vn 0.996528 0.012986 -0.082236
vn 0.996349 -0.000000 -0.085371
vn 0.295749 0.000000 -0.955266
vn 0.999941 -0.000000 -0.010863
vn 0.996528 -0.012986 -0.082236
vn 0.272085 -0.016805 -0.962126
vn -0.250134 -0.841709 -0.478497
vn -0.000001 -0.868593 -0.495527
vn -0.000001 -0.999941 -0.010845
vn 0.000000 -0.019835 -0.999803
vn 0.250136 -0.841715 -0.478485
vn 0.000000 -0.000000 1.000000
vn -0.000001 1.000000 0.000000
vn 0.000000 -0.000000 -1.000000
vn -0.000001 -1.000000 -0.000000
vn 1.000000 -0.000000 0.000000
vn -1.000000 -0.000000 0.000000
vn -0.988213 -0.133389 0.075122
vn 0.988212 -0.133389 0.075126
vn -0.988213 0.133387 0.075122
vn 0.988212 0.133395 0.075126
vn -0.988213 0.133384 -0.075122
vn 0.988213 0.133388 -0.075126
vn -0.988214 -0.133382 -0.075122
vn 0.988212 -0.133393 -0.075126
s 1
g pCube4
usemtl initialShadingGroup
f 1/1/1 51/65/2 73/39/3 54/71/4
f 51/65/2 3/4/5 52/67/6 73/39/3
f 73/39/3 52/67/6 19/29/7 53/69/8
f 54/71/4 73/39/3 53/69/8 21/33/9
f 2/3/10 55/72/11 74/40/12 58/76/13
f 55/72/11 1/2/1 56/73/14 74/40/12
f 74/40/12 56/73/14 6/9/15 57/75/16
f 58/76/13 74/40/12 57/75/16 5/8/17
f 3/5/5 59/77/18 75/41/19 62/80/20
f 59/77/18 2/3/10 60/78/21 75/41/19
f 75/41/19 60/78/21 8/13/22 61/79/23
f 62/80/20 75/41/19 61/79/23 7/11/24
f 4/6/25 63/81/26 76/42/27 66/86/28
f 63/81/26 6/10/15 64/83/29 76/42/27
f 76/42/27 64/83/29 22/34/30 65/84/31
f 66/86/28 76/42/27 65/84/31 24/36/32
f 5/8/17 67/88/33 77/43/34 70/91/35
f 67/88/33 4/7/25 68/89/36 77/43/34
f 77/43/34 68/89/36 12/17/37 69/90/38
f 70/91/35 77/43/34 69/90/38 11/16/39
f 7/12/24 71/92/40 78/44/41 26/96/42
f 71/92/40 9/14/43 72/94/44 78/44/41
f 78/44/41 72/94/44 14/22/45 25/95/46
f 26/96/42 78/44/41 25/95/46 13/19/47
f 9/14/43 27/98/48 79/45/49 30/101/50
f 27/98/48 8/13/22 28/99/51 79/45/49
f 79/45/49 28/99/51 11/16/39 29/100/52
f 30/101/50 79/45/49 29/100/52 10/15/53
f 10/15/53 31/102/54 80/46/55 34/107/56
f 31/102/54 12/18/37 32/104/57 80/46/55
f 80/46/55 32/104/57 18/26/58 33/106/59
f 34/107/56 80/46/55 33/106/59 17/25/60
f 13/20/47 35/108/61 81/47/62 38/112/63
f 35/108/61 15/23/64 36/110/65 81/47/62
f 81/47/62 36/110/65 20/32/66 37/111/67
f 38/112/63 81/47/62 37/111/67 19/31/7
f 15/23/64 39/114/68 82/48/69 42/117/70
f 39/114/68 14/22/45 40/115/71 82/48/69
f 82/48/69 40/115/71 17/25/60 41/116/72
f 42/117/70 82/48/69 41/116/72 16/24/73
f 16/24/73 43/118/74 83/49/75 46/123/76
f 43/118/74 18/28/58 44/120/77 83/49/75
f 83/49/75 44/120/77 24/37/32 45/122/78
f 46/123/76 83/49/75 45/122/78 23/35/79
f 21/33/9 47/124/80 84/50/81 50/127/82
f 47/124/80 20/32/66 48/125/83 84/50/81
f 84/50/81 48/125/83 23/35/79 49/126/84
f 50/127/82 84/50/81 49/126/84 22/34/30
f 2/3/10 58/76/13 85/51/85 60/78/21
f 58/76/13 5/8/17 70/91/35 85/51/85
f 85/51/85 70/91/35 11/16/39 28/99/51
f 60/78/21 85/51/85 28/99/51 8/13/22
f 9/14/43 30/101/50 86/52/86 72/94/44
f 30/101/50 10/15/53 34/107/56 86/52/86
f 86/52/86 34/107/56 17/25/60 40/115/71
f 72/94/44 86/52/86 40/115/71 14/22/45
f 15/23/64 42/117/70 87/53/87 36/110/65
f 42/117/70 16/24/73 46/123/76 87/53/87
f 87/53/87 46/123/76 23/35/79 48/125/83
f 36/110/65 87/53/87 48/125/83 20/32/66
f 21/33/9 50/127/82 88/54/88 54/71/4
f 50/127/82 22/34/30 64/83/29 88/54/88
f 88/54/88 64/83/29 6/10/15 56/74/14
f 54/71/4 88/54/88 56/74/14 1/1/1
f 4/7/25 66/87/28 89/55/89 68/89/36
f 66/87/28 24/38/32 44/121/77 89/55/89
f 89/55/89 44/121/77 18/27/58 32/105/57
f 68/89/36 89/55/89 32/105/57 12/17/37
f 19/30/7 52/68/6 90/56/90 38/113/63
f 52/68/6 3/5/5 62/80/20 90/56/90
f 90/56/90 62/80/20 7/11/24 26/97/42
f 38/113/63 90/56/90 26/97/42 13/21/47
f 1/2/1 55/72/11 91/57/91 51/66/2
f 2/3/10 59/77/18 91/57/91 55/72/11
f 3/5/5 51/66/2 91/57/91 59/77/18
f 4/7/25 67/88/33 92/58/92 63/82/26
f 5/8/17 57/75/16 92/58/92 67/88/33
f 6/9/15 63/82/26 92/58/92 57/75/16
f 7/11/24 61/79/23 93/59/93 71/93/40
f 8/13/22 27/98/48 93/59/93 61/79/23
f 9/14/43 71/93/40 93/59/93 27/98/48
f 10/15/53 29/100/52 94/60/94 31/103/54
f 11/16/39 69/90/38 94/60/94 29/100/52
f 12/17/37 31/103/54 94/60/94 69/90/38
f 13/19/47 25/95/46 95/61/95 35/109/61
f 14/22/45 39/114/68 95/61/95 25/95/46
f 15/23/64 35/109/61 95/61/95 39/114/68
f 16/24/73 41/116/72 96/62/96 43/119/74
f 17/25/60 33/106/59 96/62/96 41/116/72
f 18/26/58 43/119/74 96/62/96 33/106/59
f 19/31/7 37/111/67 97/63/97 53/70/8
f 20/32/66 47/124/80 97/63/97 37/111/67
f 21/33/9 53/70/8 97/63/97 47/124/80
f 22/34/30 49/126/84 98/64/98 65/85/31
f 23/35/79 45/122/78 98/64/98 49/126/84
f 24/37/32 65/85/31 98/64/98 45/122/78
