# This file uses centimeters as units for non-parametric coordinates.

mtllib Wall_short.mtl
g default
v -34.078976 -1.166447 -28.145916
v -34.078976 -0.763535 -28.566511
v -34.020992 -0.763535 -28.145916
v -34.247601 -0.763535 -28.145916
v -34.189621 -0.763535 -28.566511
v -34.189621 -1.166446 -28.145916
v -34.020992 1.416701 -28.145916
v -34.078976 1.416701 -28.566511
v -34.078976 1.819613 -28.145916
v -34.189621 1.819612 -28.145916
v -34.189621 1.416701 -28.566511
v -34.247601 1.416701 -28.145916
v -34.020992 1.416701 -25.859579
v -34.078976 1.819612 -25.859579
v -34.078976 1.416701 -25.438982
v -34.189621 1.416701 -25.438982
v -34.189621 1.819612 -25.859579
v -34.247601 1.416701 -25.859579
v -34.020992 -0.763535 -25.859579
v -34.078976 -0.763535 -25.438982
v -34.078976 -1.166446 -25.859579
v -34.189621 -1.166446 -25.859577
v -34.189621 -0.763535 -25.438982
v -34.247601 -0.763535 -25.859579
v -34.040989 1.799621 -25.861578
v -34.014332 1.417367 -27.002747
v -34.080978 1.799621 -28.546520
v -34.134300 1.417367 -28.573175
v -34.187622 1.799621 -28.546520
v -34.134300 1.826276 -28.146582
v -34.227608 1.799621 -28.143917
v -34.254265 1.417367 -27.002747
v -34.227608 1.799621 -25.861578
v -34.190289 1.826276 -27.002747
v -34.040989 1.414702 -25.458975
v -34.078312 0.326583 -25.432318
v -34.040989 -0.761535 -25.458975
v -34.014332 0.326583 -25.858910
v -34.080978 1.799621 -25.458975
v -34.134300 1.826276 -25.858910
v -34.187622 1.799621 -25.458975
v -34.134300 1.417367 -25.432318
v -34.227608 1.414702 -25.458975
v -34.254265 0.326583 -25.858910
v -34.227608 -0.761535 -25.458975
v -34.190289 0.326583 -25.432318
v -34.080978 -1.146455 -25.458975
v -34.134300 -0.764201 -25.432318
v -34.187622 -1.146455 -25.458975
v -34.134300 -1.173110 -25.858910
v -34.040989 -1.146455 -28.143917
v -34.014332 -0.764201 -27.002747
v -34.040989 -1.146455 -25.861578
v -34.078312 -1.173110 -27.002747
v -34.080978 -1.146455 -28.546520
v -34.134300 -1.173110 -28.146582
v -34.187622 -1.146455 -28.546520
v -34.134300 -0.764201 -28.573175
v -34.040989 -0.761535 -28.546520
v -34.078312 0.326583 -28.573175
v -34.040989 1.414702 -28.546520
v -34.014332 0.326583 -28.146582
v -34.227608 -1.146455 -28.143917
v -34.190289 -1.173110 -27.002747
v -34.227608 -1.146455 -25.861578
v -34.254265 -0.764201 -27.002747
v -34.227608 -0.761535 -28.546520
v -34.254265 0.326583 -28.146582
v -34.227608 1.414702 -28.546520
v -34.190289 0.326583 -28.573175
v -34.040989 1.799621 -28.143917
v -34.078312 1.826276 -27.002747
v -34.038322 -1.149120 -27.002747
v -34.134300 -1.149120 -28.549185
v -34.038322 0.326583 -28.549185
v -34.230274 -1.149120 -27.002747
v -34.230274 0.326583 -28.549185
v -34.038322 1.802286 -27.002747
v -34.134300 1.802286 -28.549185
v -34.230274 1.802286 -27.002747
v -34.038322 0.326583 -25.456308
v -34.134300 1.802286 -25.456308
v -34.230274 0.326583 -25.456308
v -34.134300 -1.149120 -25.456308
v -34.134300 0.326583 -28.581173
v -34.134300 1.834273 -27.002747
v -34.134300 0.326583 -25.424322
v -34.134300 -1.181107 -27.002747
v -34.262260 0.326583 -27.002747
v -34.006332 0.326583 -27.002747
v -34.048985 -1.138458 -28.538523
v -34.219612 -1.138458 -28.538523
v -34.048985 1.791624 -28.538523
v -34.219612 1.791624 -28.538523
v -34.048985 1.791624 -25.466970
v -34.219612 1.791624 -25.466970
v -34.048985 -1.138458 -25.466970
v -34.219612 -1.138458 -25.466970
vt 0.437492 0.994934
vt 0.437492 0.000000
vt 0.445378 0.034620
vt 0.375000 0.994930
vt 0.369934 0.005304
vt 0.625000 0.994934
vt 0.630066 0.005304
vt 0.554622 0.034620
vt 0.562508 0.000000
vt 0.562508 0.994934
vt 0.369934 0.244696
vt 0.375000 0.255066
vt 0.445378 0.215960
vt 0.437492 0.255066
vt 0.562508 0.255066
vt 0.554622 0.215960
vt 0.630066 0.244696
vt 0.625000 0.255066
vt 0.375000 0.494930
vt 0.375000 0.505304
vt 0.130066 0.244696
vt 0.445959 0.466138
vt 0.437492 0.505304
vt 0.562508 0.505304
vt 0.554041 0.466139
vt 0.625000 0.494934
vt 0.869934 0.244696
vt 0.625000 0.505304
vt 0.375000 0.755066
vt 0.130066 0.005304
vt 0.375000 0.744692
vt 0.445959 0.715960
vt 0.437492 0.755066
vt 0.562508 0.755066
vt 0.554041 0.715960
vt 0.625000 0.755066
vt 0.625000 0.744696
vt 0.869934 0.005304
vt 0.406246 0.874999
vt 0.500000 0.002652
vt 0.403713 0.125000
vt 0.593754 0.875000
vt 0.596287 0.125000
vt 0.406246 0.374999
vt 0.500000 0.249881
vt 0.593754 0.375000
vt 0.406246 0.624999
vt 0.500000 0.500119
vt 0.593754 0.625000
vt 0.500000 0.749881
vt 0.500000 0.125000
vt 0.500000 0.375000
vt 0.500000 0.625000
vt 0.500000 0.875000
vt 0.750000 0.125000
vt 0.250000 0.125000
vt 0.414973 0.003536
vt 0.585027 0.003536
vt 0.414973 0.248153
vt 0.585027 0.248153
vt 0.416662 0.498389
vt 0.583338 0.498390
vt 0.416662 0.748152
vt 0.583338 0.748153
vt 0.406246 0.994932
vt 0.403713 0.002652
vt 0.375000 0.874998
vt 0.250000 0.005304
vt 0.406246 0.755066
vt 0.406246 0.749879
vt 0.445308 0.875000
vt 0.447489 0.002873
vt 0.500000 0.000000
vt 0.500000 0.994934
vt 0.552511 0.002873
vt 0.500000 0.034565
vt 0.406528 0.034786
vt 0.444674 0.125000
vt 0.406528 0.215636
vt 0.348395 0.125000
vt 0.593754 0.994934
vt 0.596287 0.002652
vt 0.554692 0.875000
vt 0.593754 0.755066
vt 0.593754 0.749881
vt 0.625000 0.875000
vt 0.750000 0.005304
vt 0.593472 0.034786
vt 0.651605 0.125000
vt 0.593472 0.215636
vt 0.555326 0.125000
vt 0.406246 0.255066
vt 0.403713 0.249881
vt 0.445308 0.375000
vt 0.408850 0.465813
vt 0.375000 0.374998
vt 0.250000 0.244696
vt 0.447489 0.249449
vt 0.500000 0.216068
vt 0.552511 0.249449
vt 0.500000 0.283753
vt 0.593754 0.255066
vt 0.596287 0.249881
vt 0.625000 0.375000
vt 0.750000 0.244696
vt 0.591150 0.465814
vt 0.554692 0.375000
vt 0.406246 0.505304
vt 0.406246 0.500117
vt 0.445308 0.625000
vt 0.408850 0.715635
vt 0.375000 0.624998
vt 0.130066 0.125000
vt 0.447912 0.499686
vt 0.500000 0.466247
vt 0.552088 0.499687
vt 0.500000 0.533932
vt 0.593754 0.505304
vt 0.593754 0.500119
vt 0.625000 0.625000
vt 0.869934 0.125000
vt 0.591150 0.715636
vt 0.554692 0.625000
vt 0.447912 0.749449
vt 0.500000 0.716068
vt 0.552088 0.749449
vt 0.500000 0.783753
vn 0.272077 -0.962142 -0.016034
vn 0.989552 -0.143624 -0.012604
vn 0.988890 -0.148650 0.000000
vn 0.295728 -0.955272 -0.000000
vn 0.999689 -0.018034 -0.017206
vn 0.999802 -0.019884 0.000000
vn 0.999689 -0.018034 0.017206
vn 0.989552 -0.143622 0.012604
vn 0.272073 -0.962143 0.016034
vn 0.272075 -0.016803 -0.962129
vn 0.256468 -0.697943 -0.668655
vn -0.000001 -0.721983 -0.691911
vn 0.000000 -0.019832 -0.999803
vn -0.000001 -0.999821 -0.018927
vn -0.272083 -0.962140 -0.016034
vn -0.256463 -0.697957 -0.668643
vn -0.272082 -0.016804 -0.962127
vn 0.990385 -0.013186 -0.137707
vn 0.989784 -0.000000 -0.142575
vn 0.999820 -0.000000 -0.018973
vn 0.295744 -0.000000 -0.955267
vn 0.272077 0.016802 -0.962129
vn 0.990385 0.013186 -0.137707
vn 0.999689 0.018034 -0.017206
vn -0.999689 -0.018031 -0.017205
vn -0.989555 -0.143602 -0.012604
vn -0.988893 -0.148629 0.000000
vn -0.999802 -0.019880 -0.000000
vn -0.295741 -0.955268 -0.000000
vn -0.272087 -0.962139 0.016034
vn -0.989555 -0.143603 0.012604
vn -0.999689 -0.018031 0.017205
vn -0.990386 -0.013189 -0.137698
vn -0.989785 -0.000000 -0.142566
vn -0.295755 0.000000 -0.955264
vn -0.999820 -0.000000 -0.018971
vn -0.999689 0.018031 -0.017205
vn -0.990386 0.013189 -0.137698
vn -0.272086 0.016804 -0.962126
vn 0.989552 0.143623 -0.012604
vn 0.988890 0.148650 -0.000000
vn 0.999802 0.019884 0.000000
vn 0.272078 0.962142 -0.016034
vn 0.295728 0.955272 0.000000
vn 0.272072 0.962143 0.016034
vn 0.989552 0.143621 0.012604
vn 0.999689 0.018034 0.017206
vn 0.256437 0.697951 -0.668659
vn -0.000001 0.721984 -0.691910
vn -0.000001 0.999821 -0.018927
vn 0.000000 0.019833 -0.999803
vn -0.256443 0.697963 -0.668644
vn -0.272084 0.962140 -0.016034
vn -0.989555 0.143602 -0.012604
vn -0.988893 0.148628 0.000000
vn -0.295739 0.955269 0.000000
vn -0.999802 0.019880 0.000000
vn -0.999689 0.018031 0.017205
vn -0.989555 0.143603 0.012604
vn -0.272086 0.962139 0.016034
vn 0.990385 0.013186 0.137706
vn 0.989784 0.000000 0.142575
vn 0.999820 0.000000 0.018973
vn 0.272048 0.016803 0.962137
vn 0.295711 -0.000000 0.955278
vn 0.272060 -0.016804 0.962133
vn 0.990385 -0.013186 0.137706
vn 0.256460 0.697963 0.668637
vn 0.000000 0.721975 0.691919
vn 0.000000 0.019832 0.999803
vn -0.000000 0.999821 0.018928
vn -0.256469 0.697952 0.668645
vn -0.272056 0.016804 0.962135
vn -0.990386 0.013189 0.137698
vn -0.989785 0.000000 0.142566
vn -0.295722 0.000000 0.955274
vn -0.999820 -0.000000 0.018971
vn -0.990387 -0.013189 0.137697
vn -0.272073 -0.016804 0.962130
vn 0.256458 -0.697966 0.668635
vn 0.000000 -0.721983 0.691911
vn -0.000000 -0.999821 0.018928
vn 0.000000 -0.019832 0.999803
vn -0.256475 -0.697953 0.668642
vn 0.000000 0.000000 -1.000000
vn -0.000000 1.000000 0.000000
vn 0.000000 0.000000 1.000000
vn 0.000000 -1.000000 -0.000000
vn -1.000000 -0.000000 0.000000
vn 1.000000 -0.000000 0.000000
vn 0.983126 -0.132156 -0.126488
vn -0.983128 -0.132144 -0.126480
vn 0.983125 0.132157 -0.126487
vn -0.983128 0.132145 -0.126480
vn 0.983126 0.132153 0.126487
vn -0.983129 0.132137 0.126480
vn 0.983126 -0.132155 0.126488
vn -0.983130 -0.132129 0.126479
s 1
g pCube5
usemtl initialShadingGroup
f 1/1/1 51/65/2 73/39/3 54/71/4
f 51/65/2 3/4/5 52/67/6 73/39/3
f 73/39/3 52/67/6 19/29/7 53/69/8
f 54/71/4 73/39/3 53/69/8 21/33/9
f 2/3/10 55/72/11 74/40/12 58/76/13
f 55/72/11 1/2/1 56/73/14 74/40/12
f 74/40/12 56/73/14 6/9/15 57/75/16
f 58/76/13 74/40/12 57/75/16 5/8/17
f 3/5/5 59/77/18 75/41/19 62/80/20
f 59/77/18 2/3/10 60/78/21 75/41/19
f 75/41/19 60/78/21 8/13/22 61/79/23
f 62/80/20 75/41/19 61/79/23 7/11/24
f 4/6/25 63/81/26 76/42/27 66/86/28
f 63/81/26 6/10/15 64/83/29 76/42/27
f 76/42/27 64/83/29 22/34/30 65/84/31
f 66/86/28 76/42/27 65/84/31 24/36/32
f 5/8/17 67/88/33 77/43/34 70/91/35
f 67/88/33 4/7/25 68/89/36 77/43/34
f 77/43/34 68/89/36 12/17/37 69/90/38
f 70/91/35 77/43/34 69/90/38 11/16/39
f 7/12/24 71/92/40 78/44/41 26/96/42
f 71/92/40 9/14/43 72/94/44 78/44/41
f 78/44/41 72/94/44 14/22/45 25/95/46
f 26/96/42 78/44/41 25/95/46 13/19/47
f 9/14/43 27/98/48 79/45/49 30/101/50
f 27/98/48 8/13/22 28/99/51 79/45/49
f 79/45/49 28/99/51 11/16/39 29/100/52
f 30/101/50 79/45/49 29/100/52 10/15/53
f 10/15/53 31/102/54 80/46/55 34/107/56
f 31/102/54 12/18/37 32/104/57 80/46/55
f 80/46/55 32/104/57 18/26/58 33/106/59
f 34/107/56 80/46/55 33/106/59 17/25/60
f 13/20/47 35/108/61 81/47/62 38/112/63
f 35/108/61 15/23/64 36/110/65 81/47/62
f 81/47/62 36/110/65 20/32/66 37/111/67
f 38/112/63 81/47/62 37/111/67 19/31/7
f 15/23/64 39/114/68 82/48/69 42/117/70
f 39/114/68 14/22/45 40/115/71 82/48/69
f 82/48/69 40/115/71 17/25/60 41/116/72
f 42/117/70 82/48/69 41/116/72 16/24/73
f 16/24/73 43/118/74 83/49/75 46/123/76
f 43/118/74 18/28/58 44/120/77 83/49/75
f 83/49/75 44/120/77 24/37/32 45/122/78
f 46/123/76 83/49/75 45/122/78 23/35/79
f 21/33/9 47/124/80 84/50/81 50/127/82
f 47/124/80 20/32/66 48/125/83 84/50/81
f 84/50/81 48/125/83 23/35/79 49/126/84
f 50/127/82 84/50/81 49/126/84 22/34/30
f 2/3/10 58/76/13 85/51/85 60/78/21
f 58/76/13 5/8/17 70/91/35 85/51/85
f 85/51/85 70/91/35 11/16/39 28/99/51
f 60/78/21 85/51/85 28/99/51 8/13/22
f 9/14/43 30/101/50 86/52/86 72/94/44
f 30/101/50 10/15/53 34/107/56 86/52/86
f 86/52/86 34/107/56 17/25/60 40/115/71
f 72/94/44 86/52/86 40/115/71 14/22/45
f 15/23/64 42/117/70 87/53/87 36/110/65
f 42/117/70 16/24/73 46/123/76 87/53/87
f 87/53/87 46/123/76 23/35/79 48/125/83
f 36/110/65 87/53/87 48/125/83 20/32/66
f 21/33/9 50/127/82 88/54/88 54/71/4
f 50/127/82 22/34/30 64/83/29 88/54/88
f 88/54/88 64/83/29 6/10/15 56/74/14
f 54/71/4 88/54/88 56/74/14 1/1/1
f 4/7/25 66/87/28 89/55/89 68/89/36
f 66/87/28 24/38/32 44/121/77 89/55/89
f 89/55/89 44/121/77 18/27/58 32/105/57
f 68/89/36 89/55/89 32/105/57 12/17/37
f 19/30/7 52/68/6 90/56/90 38/113/63
f 52/68/6 3/5/5 62/80/20 90/56/90
f 90/56/90 62/80/20 7/11/24 26/97/42
f 38/113/63 90/56/90 26/97/42 13/21/47
f 1/2/1 55/72/11 91/57/91 51/66/2
f 2/3/10 59/77/18 91/57/91 55/72/11
f 3/5/5 51/66/2 91/57/91 59/77/18
f 4/7/25 67/88/33 92/58/92 63/82/26
f 5/8/17 57/75/16 92/58/92 67/88/33
f 6/9/15 63/82/26 92/58/92 57/75/16
f 7/11/24 61/79/23 93/59/93 71/93/40
f 8/13/22 27/98/48 93/59/93 61/79/23
f 9/14/43 71/93/40 93/59/93 27/98/48
f 10/15/53 29/100/52 94/60/94 31/103/54
f 11/16/39 69/90/38 94/60/94 29/100/52
f 12/17/37 31/103/54 94/60/94 69/90/38
f 13/19/47 25/95/46 95/61/95 35/109/61
f 14/22/45 39/114/68 95/61/95 25/95/46
f 15/23/64 35/109/61 95/61/95 39/114/68
f 16/24/73 41/116/72 96/62/96 43/119/74
f 17/25/60 33/106/59 96/62/96 41/116/72
f 18/26/58 43/119/74 96/62/96 33/106/59
f 19/31/7 37/111/67 97/63/97 53/70/8
f 20/32/66 47/124/80 97/63/97 37/111/67
f 21/33/9 53/70/8 97/63/97 47/124/80
f 22/34/30 49/126/84 98/64/98 65/85/31
f 23/35/79 45/122/78 98/64/98 49/126/84
f 24/37/32 65/85/31 98/64/98 45/122/78
