# Blender 3.5.1
# www.blender.org
mtllib Rock3.mtl
o Sphere
v 1.055089 -0.066834 0.568126
v -1.067773 -0.351963 0.439593
v 0.513983 -0.630930 0.658253
v -0.973567 -0.480521 0.446368
v 0.634049 -0.667338 0.554207
v 0.776063 -0.490275 0.628003
v 0.875031 0.253752 -0.690293
v 0.936823 0.394156 -0.566243
v -0.121235 0.663695 -0.409180
v -0.121235 0.663695 0.389352
v -0.613062 0.161304 -0.760332
v -0.564613 0.084834 -0.813781
v -0.815184 -0.498926 0.591803
v -0.449127 -0.541465 0.743810
v -0.903539 -0.135412 0.624383
v 0.724522 0.084834 -0.813781
v 0.634049 -0.667338 -0.467736
v 0.658908 -0.158521 -0.823572
v 0.943737 -0.267478 -0.503500
v -0.562035 -0.190701 -0.824866
v 0.395242 -0.442408 -0.834992
v 0.384259 -0.638311 -0.699177
v -1.025633 -0.260129 -0.283128
v -0.766823 -0.483420 -0.586126
v -0.620240 -0.521580 -0.587938
v -0.732913 -0.398069 -0.650834
v -0.944182 -0.483935 0.184618
v 1.151027 0.039244 -0.362506
v 1.007633 0.267095 -0.564848
v -0.157099 -0.575401 0.753791
v 0.916971 0.410054 0.463952
v 1.228426 0.153770 0.035100
v 1.135498 0.356667 -0.028962
vn 0.8414 0.3809 0.3834
vn -0.6365 -0.4328 0.6384
vn -0.7519 -0.6361 -0.1734
vn 0.8909 0.3628 -0.2732
vn 0.1306 0.0331 0.9909
vn 0.0098 0.5864 -0.8100
vn -0.4800 -0.1934 0.8557
vn 0.6844 -0.1935 -0.7029
vn -0.0000 0.0402 -0.9992
vn 0.5598 -0.4931 -0.6660
vn -0.2522 -0.9659 -0.0587
vn -0.1551 -0.5570 -0.8159
vn -0.7988 -0.1283 -0.5878
vn -0.8225 -0.5580 -0.1099
vn -0.7599 0.0358 -0.6490
vn -0.7222 0.6917 0.0021
vn 0.6274 0.3420 -0.6996
vn -0.1143 -0.9934 0.0045
vn 0.4056 -0.6093 0.6813
vn 0.7101 -0.1554 -0.6868
vn 0.2391 0.9710 -0.0063
vn 0.0115 0.2706 0.9626
vn 0.8108 -0.5852 0.0090
vt 0.419944 0.506080
vt 0.401101 0.505375
vt 0.404487 0.527345
vt 0.396996 0.452100
vt 0.093750 0.375000
vt 0.101594 0.375000
vt 0.067489 0.387019
vt 0.095760 0.413678
vt 0.343750 0.296733
vt 0.319397 0.276776
vt 0.343750 0.270747
vt 0.093750 0.338440
vt 0.078142 0.340822
vt 0.356156 0.268155
vt 0.372940 0.264649
vt 0.375162 0.352516
vt 0.355203 0.312500
vt 0.371328 0.312500
vt 0.632192 0.572903
vt 0.625000 0.592207
vt 0.625000 0.581023
vt 0.599237 0.630217
vt 0.614356 0.625000
vt 0.600358 0.625000
vt 0.612048 0.636374
vt 0.650801 0.732095
vt 0.356507 0.732095
vt 0.810358 0.554925
vt 0.818970 0.527890
vt 0.120841 0.332977
vt 0.182366 0.317322
vt 0.130936 0.457968
vt 0.655100 0.527185
vt 0.624051 0.268155
vt 0.604650 0.264649
vt 0.662908 0.448670
vt 0.599213 0.409622
vt 0.823386 0.437989
vt 0.695055 0.353350
vt 0.685966 0.278374
vt 0.925490 0.416377
vt 0.922256 0.420269
vt 0.704170 0.408804
vt 0.871821 0.329983
vt 0.875295 0.346146
vt 0.850636 0.324101
vt 0.863316 0.367340
vt 0.259682 0.338343
vt 0.563534 0.511470
vt 0.600615 0.586490
vt 0.226913 0.303773
vt 0.408482 0.635474
vt 0.495443 0.548977
vt 0.507272 0.616449
s 0
f 1/1/1 32/53/1 33/54/1 31/52/1
f 13/30/2 2/5/2 4/12/2
f 23/41/3 24/44/3 27/48/3
f 33/54/4 32/53/4 28/49/4 29/50/4 8/22/4
f 6/16/5 1/2/5 30/51/5 3/9/5
f 16/33/6 12/29/6 11/28/6 9/26/6 8/23/6 7/19/6
f 13/30/7 14/31/7 15/32/7 2/6/7
f 29/50/8 28/49/8 7/21/8
f 20/38/9 12/29/9 16/33/9 18/36/9 21/39/9
f 18/36/10 19/37/10 17/34/10 22/40/10 21/39/10
f 27/48/11 24/44/11 25/46/11
f 26/47/12 25/46/12 24/45/12
f 23/42/13 26/47/13 24/45/13
f 2/7/14 23/43/14 27/48/14 4/13/14
f 11/28/15 12/29/15 20/38/15 26/47/15 23/42/15
f 15/32/16 10/27/16 9/26/16 11/28/16 23/43/16 2/8/16
f 20/38/12 21/39/12 22/40/12 25/46/12 26/47/12
f 7/20/17 8/24/17 29/50/17
f 4/13/18 27/48/18 25/46/18 22/40/18 17/34/18 5/14/18 3/10/18 30/51/18 14/31/18 13/30/18
f 5/15/19 6/17/19 3/11/19
f 7/21/20 28/49/20 19/37/20 18/36/20 16/33/20
f 10/27/21 31/52/21 33/54/21 8/25/21 9/26/21
f 15/32/22 14/31/22 30/51/22 1/3/22 31/52/22 10/27/22
f 6/18/23 5/15/23 17/35/23 19/37/23 28/49/23 32/53/23 1/4/23
