# Blender 3.5.1
# www.blender.org
mtllib untitled.mtl
o Sphere
v 0.218024 0.386094 -0.909384
v -0.802000 -0.754253 -0.610029
v -0.882979 -0.852184 0.409194
v -0.645154 -0.852432 0.491273
v 0.609475 -0.851850 0.298710
v 0.609934 -0.848700 -0.743826
v 0.639429 -0.599877 -0.775513
v 0.304367 1.040205 0.143593
v 0.190639 0.824826 0.682805
v 0.415597 -0.468126 0.835105
v 0.648749 -0.582413 0.648317
v 0.381566 0.374307 0.774707
v 0.719563 -0.096595 0.536326
v 0.440088 0.837775 -0.329656
v 0.508655 0.901789 -0.180001
v 0.775741 0.288817 -0.072626
v -0.356993 1.040205 0.143593
v -0.413502 0.837775 -0.329656
v -0.885254 -0.852171 0.404940
v -0.394088 0.907322 0.476272
v -0.883596 -0.846232 0.408638
v -0.074124 0.401670 -0.923091
v -0.647817 -0.848700 -0.743826
v -0.476319 0.612746 -0.635866
vn 0.6469 0.0805 0.7583
vn -0.9669 0.2543 -0.0219
vn -0.5538 0.1258 -0.8231
vn 0.8158 0.2718 -0.5105
vn 0.0927 -0.7937 0.6013
vn -0.0000 0.9287 0.3709
vn 0.8364 0.4251 0.3462
vn 0.9898 -0.1422 -0.0036
vn 0.0079 -0.1373 -0.9905
vn -0.0000 0.9194 -0.3933
vn -0.3257 0.0545 0.9439
vn -0.8809 -0.0473 0.4709
vn 0.0149 0.7995 -0.6005
vn -0.0330 -0.9994 -0.0098
vt 0.704905 0.639669
vt 0.702265 0.622407
vt 0.721355 0.635878
vt 0.926003 0.438563
vt 0.902620 0.473411
vt 0.882792 0.438666
vt 0.074489 0.438153
vt 0.119836 0.438114
vt 0.386656 0.438204
vt 0.638680 0.438692
vt 0.637577 0.482680
vt 0.633932 0.479060
vt 0.635316 0.469882
vt 0.349476 0.757131
vt 0.290118 0.712931
vt 0.320203 0.497601
vt 0.369873 0.479911
vt 0.320787 0.632066
vt 0.399253 0.555626
vt 0.631946 0.715512
vt 0.513473 0.728673
vt 0.508931 0.618432
vt 0.141157 0.757131
vt 0.855119 0.715512
vt 0.073705 0.438155
vt 0.150497 0.729371
vt 0.074365 0.439074
vt 0.761064 0.635878
vt 0.864006 0.438692
vt 0.847493 0.673730
s 0
f 12/18/1 10/16/1 11/17/1 13/19/1
f 24/30/2 2/4/2 19/25/2 21/27/2 20/26/2 17/23/2 18/24/2
f 22/28/3 23/29/3 2/5/3 24/30/3
f 1/1/4 14/20/4 15/21/4 16/22/4 7/11/4
f 11/17/5 10/16/5 4/8/5 5/9/5
f 20/26/6 9/15/6 8/14/6 17/23/6
f 9/15/7 12/18/7 13/19/7 16/22/7 15/21/7 8/14/7
f 13/19/8 11/17/8 5/9/8 6/10/8 7/12/8 16/22/8
f 23/29/9 22/28/9 1/2/9 7/13/9 6/10/9
f 18/24/10 17/23/10 8/14/10 15/21/10 14/20/10
f 10/16/11 12/18/11 9/15/11 20/26/11 21/27/11 3/7/11 4/8/11
f 3/7/12 21/27/12 19/25/12
f 14/20/13 1/3/13 22/28/13 24/30/13 18/24/13
f 2/6/14 23/29/14 6/10/14 5/9/14 4/8/14 3/7/14 19/25/14
